<svg xmlns="http://www.w3.org/2000/svg" xmlns:xlink="http://www.w3.org/1999/xlink" contentStyleType="text/css" data-diagram-type="DESCRIPTION" height="633px" preserveAspectRatio="none" style="width:1162px;height:633px;background:#FFFFFF;" version="1.1" viewBox="0 0 1162 633" width="1162px" zoomAndPan="magnify"><title>Magent architecture boundary</title><defs/><g><g class="title" data-source-line="1"><text fill="#000000" font-family="sans-serif" font-size="14" font-weight="bold" lengthAdjust="spacing" textLength="212.8622" x="467.5689" y="24.9659">Magent architecture boundary</text></g><!--cluster Emacs runtime--><g class="cluster" data-entity="Emacs runtime" data-source-line="8" data-uid="ent0003" id="cluster_Emacs runtime"><path d="M8.5,528.6099 L113.2816,528.6099 A3.75,3.75 0 0 1 115.7816,531.1099 L122.7816,553.6778 L549.5,553.6778 A2.5,2.5 0 0 1 552,556.1778 L552,619.1799 A2.5,2.5 0 0 1 549.5,621.6799 L8.5,621.6799 A2.5,2.5 0 0 1 6,619.1799 L6,531.1099 A2.5,2.5 0 0 1 8.5,528.6099" fill="none" style="stroke:#000000;stroke-width:1.5;"/><line style="stroke:#000000;stroke-width:1.5;" x1="6" x2="122.7816" y1="553.6778" y2="553.6778"/><text fill="#000000" font-family="sans-serif" font-size="14" font-weight="bold" lengthAdjust="spacing" textLength="103.7816" x="10" y="545.5758">Emacs runtime</text></g><!--cluster Magent--><g class="cluster" data-entity="Magent" data-source-line="14" data-uid="ent0007" id="cluster_Magent"><path d="M481.5,46.6699 L535.8888,46.6699 A3.75,3.75 0 0 1 538.3888,49.1699 L545.3888,71.7378 L891.5,71.7378 A2.5,2.5 0 0 1 894,74.2378 L894,502.1099 A2.5,2.5 0 0 1 891.5,504.6099 L481.5,504.6099 A2.5,2.5 0 0 1 479,502.1099 L479,49.1699 A2.5,2.5 0 0 1 481.5,46.6699" fill="none" style="stroke:#000000;stroke-width:1.5;"/><line style="stroke:#000000;stroke-width:1.5;" x1="479" x2="545.3888" y1="71.7378" y2="71.7378"/><text fill="#000000" font-family="sans-serif" font-size="14" font-weight="bold" lengthAdjust="spacing" textLength="53.3888" x="483" y="63.6358">Magent</text></g><!--cluster Provider plumbing--><g class="cluster" data-entity="Provider plumbing" data-source-line="23" data-uid="ent0014" id="cluster_Provider plumbing"><path d="M1009.5,402.0099 L1140.3215,402.0099 A3.75,3.75 0 0 1 1142.8215,404.5099 L1149.8215,427.0778 L1152.5,427.0778 A2.5,2.5 0 0 1 1155,429.5778 L1155,624.1799 A2.5,2.5 0 0 1 1152.5,626.6799 L1009.5,626.6799 A2.5,2.5 0 0 1 1007,624.1799 L1007,404.5099 A2.5,2.5 0 0 1 1009.5,402.0099" fill="none" style="stroke:#000000;stroke-width:1.5;"/><line style="stroke:#000000;stroke-width:1.5;" x1="1007" x2="1149.8215" y1="427.0778" y2="427.0778"/><text fill="#000000" font-family="sans-serif" font-size="14" font-weight="bold" lengthAdjust="spacing" textLength="129.8215" x="1011" y="418.9758">Provider plumbing</text></g><!--cluster Project / local system--><g class="cluster" data-entity="Project . local system" data-source-line="28" data-uid="ent0017" id="cluster_Project . local system"><path d="M578.5,528.6099 L726.804,528.6099 A3.75,3.75 0 0 1 729.304,531.1099 L736.304,553.6778 L980.5,553.6778 A2.5,2.5 0 0 1 983,556.1778 L983,619.1799 A2.5,2.5 0 0 1 980.5,621.6799 L578.5,621.6799 A2.5,2.5 0 0 1 576,619.1799 L576,531.1099 A2.5,2.5 0 0 1 578.5,528.6099" fill="none" style="stroke:#000000;stroke-width:1.5;"/><line style="stroke:#000000;stroke-width:1.5;" x1="576" x2="736.304" y1="553.6778" y2="553.6778"/><text fill="#000000" font-family="sans-serif" font-size="14" font-weight="bold" lengthAdjust="spacing" textLength="147.304" x="580" y="545.5758">Project / local system</text></g><!--entity buffers / modes / project--><g class="entity" data-entity="buffers . modes . project" data-source-line="9" data-uid="ent0004" id="entity_buffers . modes . project"><rect fill="#F1F1F1" height="39.0679" rx="2.5" ry="2.5" style="stroke:#181818;stroke-width:0.5;" width="183.1694" x="352.42" y="566.6099"/><text fill="#000000" font-family="sans-serif" font-size="14" lengthAdjust="spacing" textLength="163.1694" x="362.42" y="591.5758">buffers / modes / project</text></g><!--entity Magit / org / xref / LSP--><g class="entity" data-entity="Magit . org . xref . LSP" data-source-line="10" data-uid="ent0005" id="entity_Magit . org . xref . LSP"><rect fill="#F1F1F1" height="39.0679" rx="2.5" ry="2.5" style="stroke:#181818;stroke-width:0.5;" width="167.5454" x="150.23" y="566.6099"/><text fill="#000000" font-family="sans-serif" font-size="14" lengthAdjust="spacing" textLength="147.5454" x="160.23" y="591.5758">Magit / org / xref / LSP</text></g><!--entity agent-shell--><g class="entity" data-entity="agent-shell" data-source-line="11" data-uid="ent0006" id="entity_agent-shell"><rect fill="#F1F1F1" height="39.0679" rx="2.5" ry="2.5" style="stroke:#181818;stroke-width:0.5;" width="93.0517" x="22.47" y="566.6099"/><text fill="#000000" font-family="sans-serif" font-size="14" lengthAdjust="spacing" textLength="73.0517" x="32.47" y="591.5758">agent-shell</text></g><!--entity magent-acp.el\nin-process ACP--><g class="entity" data-entity="magent-acp.el.nin-process ACP" data-source-line="15" data-uid="ent0008" id="entity_magent-acp.el.nin-process ACP"><rect fill="#F1F1F1" height="58.1358" rx="2.5" ry="2.5" style="stroke:#181818;stroke-width:0.5;" width="117.5656" x="503.22" y="84.6699"/><text fill="#000000" font-family="sans-serif" font-size="14" lengthAdjust="spacing" textLength="94.1076" x="513.22" y="109.6358">magent-acp.el</text><text fill="#000000" font-family="sans-serif" font-size="14" lengthAdjust="spacing" textLength="97.5656" x="513.22" y="128.7038">in-process ACP</text></g><!--entity runtime API / queue--><g class="entity" data-entity="runtime API . queue" data-source-line="16" data-uid="ent0009" id="entity_runtime API . queue"><rect fill="#F1F1F1" height="39.0679" rx="2.5" ry="2.5" style="stroke:#181818;stroke-width:0.5;" width="152.7335" x="494.63" y="202.8099"/><text fill="#000000" font-family="sans-serif" font-size="14" lengthAdjust="spacing" textLength="132.7335" x="504.63" y="227.7758">runtime API / queue</text></g><!--entity thread ledger\nsnapshot + journal--><g class="entity" data-entity="thread ledger.nsnapshot . journal" data-source-line="17" data-uid="ent0010" id="entity_thread ledger.nsnapshot . journal"><rect fill="#F1F1F1" height="58.1358" rx="2.5" ry="2.5" style="stroke:#181818;stroke-width:0.5;" width="142.6255" x="499.69" y="301.8699"/><text fill="#000000" font-family="sans-serif" font-size="14" lengthAdjust="spacing" textLength="89.8937" x="509.69" y="326.8358">thread ledger</text><text fill="#000000" font-family="sans-serif" font-size="14" lengthAdjust="spacing" textLength="122.6255" x="509.69" y="345.9038">snapshot + journal</text></g><!--entity agent loop--><g class="entity" data-entity="agent loop" data-source-line="18" data-uid="ent0011" id="entity_agent loop"><rect fill="#F1F1F1" height="39.0679" rx="2.5" ry="2.5" style="stroke:#181818;stroke-width:0.5;" width="90.8677" x="705.57" y="311.4099"/><text fill="#000000" font-family="sans-serif" font-size="14" lengthAdjust="spacing" textLength="70.8677" x="715.57" y="336.3758">agent loop</text></g><!--entity tool orchestrator\npermission + approval--><g class="entity" data-entity="tool orchestrator.npermission . approval" data-source-line="19" data-uid="ent0012" id="entity_tool orchestrator.npermission . approval"><rect fill="#F1F1F1" height="58.1358" rx="2.5" ry="2.5" style="stroke:#181818;stroke-width:0.5;" width="166.3275" x="586.84" y="430.4799"/><text fill="#000000" font-family="sans-serif" font-size="14" lengthAdjust="spacing" textLength="111.4676" x="596.84" y="455.4458">tool orchestrator</text><text fill="#000000" font-family="sans-serif" font-size="14" lengthAdjust="spacing" textLength="146.3275" x="596.84" y="474.5138">permission + approval</text></g><!--entity agents / skills / capabilities--><g class="entity" data-entity="agents . skills . capabilities" data-source-line="20" data-uid="ent0013" id="entity_agents . skills . capabilities"><rect fill="#F1F1F1" height="39.0679" rx="2.5" ry="2.5" style="stroke:#181818;stroke-width:0.5;" width="195.2233" x="682.39" y="202.8099"/><text fill="#000000" font-family="sans-serif" font-size="14" lengthAdjust="spacing" textLength="175.2233" x="692.39" y="227.7758">agents / skills / capabilities</text></g><!--entity gptel-request--><g class="entity" data-entity="gptel-request" data-source-line="24" data-uid="ent0015" id="entity_gptel-request"><rect fill="#F1F1F1" height="39.0679" rx="2.5" ry="2.5" style="stroke:#181818;stroke-width:0.5;" width="108.8857" x="1024.56" y="440.0099"/><text fill="#000000" font-family="sans-serif" font-size="14" lengthAdjust="spacing" textLength="88.8857" x="1034.56" y="464.9758">gptel-request</text></g><!--entity Provider--><g class="entity" data-entity="Provider" data-source-line="25" data-uid="ent0016" id="entity_Provider"><path d="M1031.2393,570.4417 C1035.5973,563.2795 1041.0898,564.0335 1044.9529,570.9246 C1048.2749,565.9912 1053.0761,565.7123 1056.5968,570.6913 C1059.9077,564.6201 1064.4655,562.3446 1069.6764,568.6898 C1073.391,561.3163 1078.705,561.6288 1083.0221,568.1093 C1087.5091,563.6468 1093.0202,563.3885 1095.2682,570.482 C1098.5035,564.9036 1103.9834,564.7684 1107.5164,570.1494 C1110.7243,563.8772 1115.988,564.1796 1119.7655,569.5502 C1124.4147,562.4035 1128.9582,562.5941 1133.5226,569.6323 C1141.6445,573.965 1143.3614,579.3183 1136.4937,586.3198 C1145.1335,594.2456 1143.7222,601.2183 1132.3874,604.6755 C1128.4843,610.1103 1122.6347,610.7578 1118.936,604.4417 C1115.8897,609.9519 1111.8359,610.296 1107.8334,605.4685 C1104.3836,611.9788 1099.8657,612.4729 1094.6672,607.4679 C1090.8538,612.9478 1086.0493,611.7898 1083.0132,606.6175 C1078.948,613.0983 1072.4959,612.58 1069.1158,605.8944 C1064.6992,612.0876 1060.1506,612.469 1055.9124,605.7125 C1051.5199,609.6214 1048.0136,609.1883 1044.9804,604.0669 C1041.1518,610.2231 1034.5531,611.5726 1030.7264,604.0648 C1021.1017,602.0521 1018.9391,595.1329 1026.0821,588.2089 C1017.7623,580.9575 1022.4051,572.714 1031.2393,570.4417" fill="#F1F1F1" style="stroke:#181818;stroke-width:0.5;"/><text fill="#000000" font-family="sans-serif" font-size="14" lengthAdjust="spacing" textLength="86.8837" x="1037.56" y="591.5758">LLM provider</text></g><!--entity source tree--><g class="entity" data-entity="source tree" data-source-line="29" data-uid="ent0018" id="entity_source tree"><rect fill="#F1F1F1" height="39.0679" rx="2.5" ry="2.5" style="stroke:#181818;stroke-width:0.5;" width="94.4937" x="591.75" y="566.6099"/><text fill="#000000" font-family="sans-serif" font-size="14" lengthAdjust="spacing" textLength="74.4937" x="601.75" y="591.5758">source tree</text></g><!--entity shell / rg--><g class="entity" data-entity="shell . rg" data-source-line="30" data-uid="ent0019" id="entity_shell . rg"><rect fill="#F1F1F1" height="39.0679" rx="2.5" ry="2.5" style="stroke:#181818;stroke-width:0.5;" width="77.3578" x="721.32" y="566.6099"/><text fill="#000000" font-family="sans-serif" font-size="14" lengthAdjust="spacing" textLength="57.3578" x="731.32" y="591.5758">shell / rg</text></g><!--entity .magent overlays--><g class="entity" data-entity=".magent overlays" data-source-line="31" data-uid="ent0020" id="entity_.magent overlays"><rect fill="#F1F1F1" height="39.0679" rx="2.5" ry="2.5" style="stroke:#181818;stroke-width:0.5;" width="133.1196" x="833.44" y="566.6099"/><text fill="#000000" font-family="sans-serif" font-size="14" lengthAdjust="spacing" textLength="113.1196" x="843.44" y="591.5758">.magent overlays</text></g><!--entity User--><g class="entity" data-entity="User" data-source-line="6" data-uid="ent0002" id="entity_User"><ellipse cx="68.9989" cy="428.5099" fill="#F1F1F1" rx="8" ry="8" style="stroke:#181818;stroke-width:0.5;"/><path d="M68.9989,436.5099 L68.9989,463.5099 M55.9989,444.5099 L81.9989,444.5099 M68.9989,463.5099 L55.9989,478.5099 M68.9989,463.5099 L81.9989,478.5099" fill="none" style="stroke:#181818;stroke-width:0.5;"/><text fill="#000000" font-family="sans-serif" font-size="14" lengthAdjust="spacing" textLength="30.6179" x="53.69" y="494.9758">User</text></g><!--link User to agent-shell--><g class="link" data-entity-1="User" data-entity-2="agent-shell" data-source-line="34" data-uid="lnk21" id="link_User_agent-shell"><path d="M69,499.2899 C69,521.5799 69,542.5799 69,560.2799" fill="none" id="User-to-agent-shell" style="stroke:#181818;stroke-width:1;"/><polygon fill="#181818" points="69,566.2799,73,557.2799,69,561.2799,65,557.2799,69,566.2799" style="stroke:#181818;stroke-width:1;"/></g><!--link agent-shell to magent-acp.el\nin-process ACP--><g class="link" data-entity-1="agent-shell" data-entity-2="magent-acp.el.nin-process ACP" data-source-line="35" data-uid="lnk22" id="link_agent-shell_magent-acp.el.nin-process ACP"><path d="M87.33,566.3499 C100.04,553.3899 117.42,535.8299 133,520.6099 C280.25,376.7899 455.9712,213.0304 526.8512,147.2804" fill="none" id="agent-shell-to-magent-acp.el\nin-process ACP" style="stroke:#181818;stroke-width:1;"/><polygon fill="#181818" points="531.25,143.1999,521.9314,146.388,527.5843,146.6003,527.3721,152.2532,531.25,143.1999" style="stroke:#181818;stroke-width:1;"/></g><!--link magent-acp.el\nin-process ACP to runtime API / queue--><g class="link" data-entity-1="magent-acp.el.nin-process ACP" data-entity-2="runtime API . queue" data-source-line="36" data-uid="lnk23" id="link_magent-acp.el.nin-process ACP_runtime API . queue"><path d="M564.41,143.3099 C565.99,162.0499 567.5133,180.0713 568.9033,196.4713" fill="none" id="magent-acp.el\nin-process ACP-to-runtime API / queue" style="stroke:#181818;stroke-width:1;"/><polygon fill="#181818" points="569.41,202.4499,572.6356,193.1442,568.9877,197.4678,564.6642,193.8199,569.41,202.4499" style="stroke:#181818;stroke-width:1;"/></g><!--link runtime API / queue to thread ledger\nsnapshot + journal--><g class="link" data-entity-1="runtime API . queue" data-entity-2="thread ledger.nsnapshot . journal" data-source-line="37" data-uid="lnk24" id="link_runtime API . queue_thread ledger.nsnapshot . journal"><path d="M571,241.9099 C571,258.3699 571,276.6699 571,295.5699" fill="none" id="runtime API / queue-to-thread ledger\nsnapshot + journal" style="stroke:#181818;stroke-width:1;"/><polygon fill="#181818" points="571,301.5699,575,292.5699,571,296.5699,567,292.5699,571,301.5699" style="stroke:#181818;stroke-width:1;"/></g><!--link runtime API / queue to agent loop--><g class="link" data-entity-1="runtime API . queue" data-entity-2="agent loop" data-source-line="38" data-uid="lnk25" id="link_runtime API . queue_agent loop"><path d="M602.77,242.1499 C635.47,261.5199 680.9774,288.4726 713.7874,307.9026" fill="none" id="runtime API / queue-to-agent loop" style="stroke:#181818;stroke-width:1;"/><polygon fill="#181818" points="718.95,310.9599,713.2442,302.9322,714.6478,308.4121,709.1678,309.8157,718.95,310.9599" style="stroke:#181818;stroke-width:1;"/></g><!--link agent loop to gptel-request--><g class="link" data-entity-1="agent loop" data-entity-2="gptel-request" data-source-line="39" data-uid="lnk26" id="link_agent loop_gptel-request"><path d="M796.61,349.5499 C857.95,373.2199 961.0224,413.0097 1024.1724,437.3797" fill="none" id="agent loop-to-gptel-request" style="stroke:#181818;stroke-width:1;"/><polygon fill="#181818" points="1029.77,439.5399,1022.8136,432.5679,1025.1053,437.7398,1019.9334,440.0314,1029.77,439.5399" style="stroke:#181818;stroke-width:1;"/></g><!--link gptel-request to Provider--><g class="link" data-entity-1="gptel-request" data-entity-2="Provider" data-source-line="40" data-uid="lnk27" id="link_gptel-request_Provider"><path d="M1079.3,479.4699 C1079.66,501.3899 1080.1442,531.5407 1080.5242,555.3407" fill="none" id="gptel-request-to-Provider" style="stroke:#181818;stroke-width:1;"/><polygon fill="#181818" points="1080.62,561.3399,1084.4758,552.2772,1080.5402,556.3405,1076.4768,552.4049,1080.62,561.3399" style="stroke:#181818;stroke-width:1;"/></g><!--link agent loop to tool orchestrator\npermission + approval--><g class="link" data-entity-1="agent loop" data-entity-2="tool orchestrator.npermission . approval" data-source-line="41" data-uid="lnk28" id="link_agent loop_tool orchestrator.npermission . approval"><path d="M738.87,350.8999 C725.46,371.8699 706.9236,400.8258 691.4536,425.0058" fill="none" id="agent loop-to-tool orchestrator\npermission + approval" style="stroke:#181818;stroke-width:1;"/><polygon fill="#181818" points="688.22,430.0599,696.4397,424.6344,690.9146,425.8481,689.7009,420.323,688.22,430.0599" style="stroke:#181818;stroke-width:1;"/></g><!--link tool orchestrator\npermission + approval to source tree--><g class="link" data-entity-1="tool orchestrator.npermission . approval" data-entity-2="source tree" data-source-line="42" data-uid="lnk29" id="link_tool orchestrator.npermission . approval_source tree"><path d="M662.97,488.8199 C657.07,512.5099 650.2679,539.8572 645.1479,560.4472" fill="none" id="tool orchestrator\npermission + approval-to-source tree" style="stroke:#181818;stroke-width:1;"/><polygon fill="#181818" points="643.7,566.2699,649.7536,558.5011,644.9066,561.4177,641.9901,556.5706,643.7,566.2699" style="stroke:#181818;stroke-width:1;"/></g><!--link tool orchestrator\npermission + approval to shell / rg--><g class="link" data-entity-1="tool orchestrator.npermission . approval" data-entity-2="shell . rg" data-source-line="43" data-uid="lnk30" id="link_tool orchestrator.npermission . approval_shell . rg"><path d="M690.42,488.8199 C707.54,512.5099 727.9771,540.8158 742.8471,561.4058" fill="none" id="tool orchestrator\npermission + approval-to-shell / rg" style="stroke:#181818;stroke-width:1;"/><polygon fill="#181818" points="746.36,566.2699,744.3335,556.6318,743.4326,562.2165,737.848,561.3156,746.36,566.2699" style="stroke:#181818;stroke-width:1;"/></g><!--link tool orchestrator\npermission + approval to buffers / modes / project--><g class="link" data-entity-1="tool orchestrator.npermission . approval" data-entity-2="buffers . modes . project" data-source-line="44" data-uid="lnk31" id="link_tool orchestrator.npermission . approval_buffers . modes . project"><path d="M618.43,488.9699 C575.57,512.5999 521.0242,542.6828 483.7542,563.2328" fill="none" id="tool orchestrator\npermission + approval-to-buffers / modes / project" style="stroke:#181818;stroke-width:1;"/><polygon fill="#181818" points="478.5,566.1299,488.3127,565.2871,482.8785,563.7157,484.45,558.2815,478.5,566.1299" style="stroke:#181818;stroke-width:1;"/></g><!--link agents / skills / capabilities to agent loop--><g class="link" data-entity-1="agents . skills . capabilities" data-entity-2="agent loop" data-source-line="45" data-uid="lnk32" id="link_agents . skills . capabilities_agent loop"><path d="M774.95,241.9099 C769.66,261.3599 762.9764,285.9407 757.6664,305.4407" fill="none" id="agents / skills / capabilities-to-agent loop" style="stroke:#181818;stroke-width:1;"/><polygon fill="#181818" points="756.09,311.2299,762.3141,303.5971,757.4037,306.4056,754.5952,301.4951,756.09,311.2299" style="stroke:#181818;stroke-width:1;"/></g><!--link .magent overlays to agents / skills / capabilities--><g class="link" data-entity-1=".magent overlays" data-entity-2="agents . skills . capabilities" data-source-line="46" data-uid="lnk33" id="link_.magent overlays_agents . skills . capabilities"><path d="M895.09,566.3399 C882.96,520.5499 849.94,399.8199 814,301.8699 C806.37,281.0899 798.6175,263.3508 791.3675,247.5908" fill="none" id=".magent overlays-to-agents / skills / capabilities" style="stroke:#181818;stroke-width:1;"/><polygon fill="#181818" points="788.86,242.1399,788.9874,251.9879,790.9496,246.6823,796.2552,248.6445,788.86,242.1399" style="stroke:#181818;stroke-width:1;"/></g><!--SRC=[bLF1Rjim3BtxAuXSXtH_CA0OTXYG0W6AdPOU69cnrKgYHihTWc7_FjhADYVDclHYcoBV8_cUN7m917VOKIg0udfVo9L12BOyf1Pbt-YJJna58qHEx7hXI51ae5b6UspvkqyTx33eFECuPax6Vb_sracC7LCNg6dG5HRueYHDaz4zsGom-1JHASYGYe-qW9yDmDVjiDkHABot0LeQtrduqOWUngpDxekTiNJs_26qizVgVZqbfxsMsbC83yslMP-wyQ51h6NeyWs5JV9fQGqSgSBjnyfp60Xkrv-D_Tj00qtdfHV25WAr7SacQSAiFHTu1uyyICBmRme8pBc2c8EDwthI8cWYR58cYLxLSp8ePcl_FCUEEvka8OmV3ZDkVV35anuljJQORqaWXo5kpOt3Vbqk59P2DhTEehd0GmkBrUfkb7B2B00L_X2SievYM-V03WFeNWl50xNQccwy3bG5cQIsKkccyAPA2_nC4d1VvnqjX-NomuazHr7DNp3cGhvodBNkx6cjlyBILz1pg-T1pPuOSH9FDNyjU8c-_jvSNrgPZrnyCtXc-Lknh_pQbsx-6RrVtBPPpV-9VWC0]--></g></svg>