<svg xmlns="http://www.w3.org/2000/svg" xmlns:xlink="http://www.w3.org/1999/xlink" contentStyleType="text/css" data-diagram-type="DESCRIPTION" height="486px" preserveAspectRatio="none" style="width:1357px;height:486px;background:#FFFFFF;" version="1.1" viewBox="0 0 1357 486" width="1357px" zoomAndPan="magnify"><title>Magent functional layers</title><defs/><g><g class="title" data-source-line="1"><text fill="#000000" font-family="sans-serif" font-size="14" font-weight="bold" lengthAdjust="spacing" textLength="172.7524" x="585.2688" y="24.9659">Magent functional layers</text></g><!--cluster Entry--><g class="cluster" data-entity="Entry" data-source-line="9" data-uid="ent0003" id="cluster_Entry"><rect fill="none" height="360" rx="2.5" ry="2.5" style="stroke:#181818;stroke-width:1;" width="178.83" x="83.62" y="47.0679"/><text fill="#000000" font-family="sans-serif" font-size="14" font-weight="bold" lengthAdjust="spacing" textLength="83.9682" x="131.0509" y="64.0339">Entry points</text></g><!--cluster Workflows--><g class="cluster" data-entity="Workflows" data-source-line="17" data-uid="ent0009" id="cluster_Workflows"><rect fill="none" height="318" rx="2.5" ry="2.5" style="stroke:#181818;stroke-width:1;" width="242.51" x="295.45" y="100.0679"/><text fill="#000000" font-family="sans-serif" font-size="14" font-weight="bold" lengthAdjust="spacing" textLength="155.1194" x="339.1453" y="117.0339">User-facing workflows</text></g><!--cluster Mechanisms--><g class="cluster" data-entity="Mechanisms" data-source-line="24" data-uid="ent0014" id="cluster_Mechanisms"><rect fill="none" height="424" rx="2.5" ry="2.5" style="stroke:#181818;stroke-width:1;" width="780.33" x="570.96" y="56.0679"/><text fill="#000000" font-family="sans-serif" font-size="14" font-weight="bold" lengthAdjust="spacing" textLength="144.3815" x="888.9343" y="73.0339">Magent mechanisms</text></g><!--entity Plain--><g class="entity" data-entity="Plain" data-source-line="10" data-uid="ent0004" id="entity_Plain"><ellipse cx="173.0253" cy="307.071" fill="#F1F1F1" rx="63.5253" ry="16.4831" style="stroke:#181818;stroke-width:0.5;"/><text fill="#000000" font-family="sans-serif" font-size="14" lengthAdjust="spacing" textLength="85.5957" x="130.2274" y="313.1049">plain prompt</text></g><!--entity Region--><g class="entity" data-entity="Region" data-source-line="11" data-uid="ent0005" id="entity_Region"><ellipse cx="173.0277" cy="239.0675" fill="#F1F1F1" rx="70.7477" ry="16.5495" style="stroke:#181818;stroke-width:0.5;"/><text fill="#000000" font-family="sans-serif" font-size="14" lengthAdjust="spacing" textLength="96.2776" x="124.8889" y="245.1014">region prompt</text></g><!--entity Point--><g class="entity" data-entity="Point" data-source-line="12" data-uid="ent0006" id="entity_Point"><ellipse cx="173.0297" cy="375.071" fill="#F1F1F1" rx="57.1797" ry="16.4831" style="stroke:#181818;stroke-width:0.5;"/><text fill="#000000" font-family="sans-serif" font-size="14" lengthAdjust="spacing" textLength="76.6217" x="134.7189" y="381.1049">ask at point</text></g><!--entity SlashCommand--><g class="entity" data-entity="SlashCommand" data-source-line="13" data-uid="ent0007" id="entity_SlashCommand"><ellipse cx="173.0268" cy="102.0713" fill="#F1F1F1" rx="73.4168" ry="17.0834" style="stroke:#181818;stroke-width:0.5;"/><text fill="#000000" font-family="sans-serif" font-size="14" lengthAdjust="spacing" textLength="103.6556" x="121.199" y="108.1052">slash command</text></g><!--entity InteractiveCommand--><g class="entity" data-entity="InteractiveCommand" data-source-line="14" data-uid="ent0008" id="entity_InteractiveCommand"><ellipse cx="173.0296" cy="171.071" fill="#F1F1F1" rx="69.9896" ry="16.4831" style="stroke:#181818;stroke-width:0.5;"/><text fill="#000000" font-family="sans-serif" font-size="14" lengthAdjust="spacing" textLength="94.7376" x="125.6608" y="177.1049">M-x command</text></g><!--entity Coding--><g class="entity" data-entity="Coding" data-source-line="18" data-uid="ent0010" id="entity_Coding"><ellipse cx="416.7044" cy="237.0728" fill="#F1F1F1" rx="74.4744" ry="17.2949" style="stroke:#181818;stroke-width:0.5;"/><text fill="#000000" font-family="sans-serif" font-size="14" lengthAdjust="spacing" textLength="106.5116" x="363.4486" y="243.1068">coding assistant</text></g><!--entity RuntimeAssistant--><g class="entity" data-entity="RuntimeAssistant" data-source-line="19" data-uid="ent0011" id="entity_RuntimeAssistant"><ellipse cx="416.7045" cy="380.0648" fill="#F1F1F1" rx="96.2845" ry="21.6569" style="stroke:#181818;stroke-width:0.5;"/><text fill="#000000" font-family="sans-serif" font-size="14" lengthAdjust="spacing" textLength="160.3694" x="336.5198" y="386.0988">Emacs runtime assistant</text></g><!--entity AgentWorkflow--><g class="entity" data-entity="AgentWorkflow" data-source-line="20" data-uid="ent0012" id="entity_AgentWorkflow"><ellipse cx="416.704" cy="306.0647" fill="#F1F1F1" rx="72.934" ry="16.9868" style="stroke:#181818;stroke-width:0.5;"/><text fill="#000000" font-family="sans-serif" font-size="14" lengthAdjust="spacing" textLength="102.3396" x="365.5342" y="312.0987">agent workflow</text></g><!--entity CommandWorkflow--><g class="entity" data-entity="CommandWorkflow" data-source-line="21" data-uid="ent0013" id="entity_CommandWorkflow"><ellipse cx="416.7023" cy="161.0684" fill="#F1F1F1" rx="105.2523" ry="23.4505" style="stroke:#181818;stroke-width:0.5;"/><text fill="#000000" font-family="sans-serif" font-size="14" lengthAdjust="spacing" textLength="180.9213" x="326.2417" y="167.1023">explicit command workflow</text></g><!--entity CodeTools--><g class="entity" data-entity="CodeTools" data-source-line="25" data-uid="ent0015" id="entity_CodeTools"><ellipse cx="1033.6178" cy="234.0715" fill="#F1F1F1" rx="94.4678" ry="21.2936" style="stroke:#181818;stroke-width:0.5;"/><text fill="#000000" font-family="sans-serif" font-size="14" lengthAdjust="spacing" textLength="156.1274" x="955.5541" y="240.1054">files / grep / glob / bash</text></g><!--entity Eval--><g class="entity" data-entity="Eval" data-source-line="26" data-uid="ent0016" id="entity_Eval"><ellipse cx="1033.6217" cy="448.071" fill="#F1F1F1" rx="56.0017" ry="16.4831" style="stroke:#181818;stroke-width:0.5;"/><text fill="#000000" font-family="sans-serif" font-size="14" lengthAdjust="spacing" textLength="74.9557" x="996.1438" y="454.1049">emacs_eval</text></g><!--entity Skills--><g class="entity" data-entity="Skills" data-source-line="27" data-uid="ent0017" id="entity_Skills"><ellipse cx="1033.6209" cy="378.0641" fill="#F1F1F1" rx="79.9309" ry="18.3862" style="stroke:#181818;stroke-width:0.5;"/><text fill="#000000" font-family="sans-serif" font-size="14" lengthAdjust="spacing" textLength="120.7635" x="973.2392" y="384.0981">skills + capabilities</text></g><!--entity Jobs--><g class="entity" data-entity="Jobs" data-source-line="28" data-uid="ent0018" id="entity_Jobs"><ellipse cx="1033.6155" cy="307.067" fill="#F1F1F1" rx="73.8455" ry="17.1691" style="stroke:#181818;stroke-width:0.5;"/><text fill="#000000" font-family="sans-serif" font-size="14" lengthAdjust="spacing" textLength="104.8176" x="981.2067" y="313.101">child-agent jobs</text></g><!--entity Commands--><g class="entity" data-entity="Commands" data-source-line="29" data-uid="ent0019" id="entity_Commands"><ellipse cx="702.6416" cy="154.0642" fill="#F1F1F1" rx="115.6816" ry="25.5363" style="stroke:#181818;stroke-width:0.5;"/><text fill="#000000" font-family="sans-serif" font-size="14" lengthAdjust="spacing" textLength="204.2032" x="600.54" y="160.0982">command registry + invocation</text></g><!--entity CommandSessions--><g class="entity" data-entity="CommandSessions" data-source-line="30" data-uid="ent0020" id="entity_CommandSessions"><ellipse cx="1033.6219" cy="154.0683" fill="#F1F1F1" rx="105.3019" ry="23.4604" style="stroke:#181818;stroke-width:0.5;"/><text fill="#000000" font-family="sans-serif" font-size="14" lengthAdjust="spacing" textLength="181.0333" x="943.1052" y="160.1023">isolated command sessions</text></g><!--entity LedgerAudit--><g class="entity" data-entity="LedgerAudit" data-source-line="31" data-uid="ent0021" id="entity_LedgerAudit"><ellipse cx="1267.6131" cy="262.071" fill="#F1F1F1" rx="67.6831" ry="16.4831" style="stroke:#181818;stroke-width:0.5;"/><text fill="#000000" font-family="sans-serif" font-size="14" lengthAdjust="spacing" textLength="91.4756" x="1221.8752" y="268.1049">ledger + audit</text></g><!--entity User--><g class="entity" data-entity="User" data-source-line="7" data-uid="ent0002" id="entity_User"><ellipse cx="21.3089" cy="208.0379" fill="#F1F1F1" rx="8" ry="8" style="stroke:#181818;stroke-width:0.5;"/><path d="M21.3089,216.0379 L21.3089,243.0379 M8.3089,224.0379 L34.3089,224.0379 M21.3089,243.0379 L8.3089,258.0379 M21.3089,243.0379 L34.3089,258.0379" fill="none" style="stroke:#181818;stroke-width:0.5;"/><text fill="#000000" font-family="sans-serif" font-size="14" lengthAdjust="spacing" textLength="30.6179" x="6" y="274.5039">User</text></g><!--link User to Plain--><g class="link" data-entity-1="User" data-entity-2="Plain" data-source-line="34" data-uid="lnk22" id="link_User_Plain"><path d="M36.72,249.5379 C47.15,256.7979 61.8,266.3379 75.62,273.0679 C92.85,281.4679 107.0056,286.9375 124.2056,292.6475" fill="none" id="User-to-Plain" style="stroke:#181818;stroke-width:1;"/><polygon fill="#181818" points="129.9,294.5379,122.6187,287.906,125.1547,292.9626,120.0981,295.4986,129.9,294.5379" style="stroke:#181818;stroke-width:1;"/></g><!--link User to Region--><g class="link" data-entity-1="User" data-entity-2="Region" data-source-line="35" data-uid="lnk23" id="link_User_Region"><path d="M36.94,239.0679 C52.24,239.0679 71.41,239.0679 95.9,239.0679" fill="none" id="User-to-Region" style="stroke:#181818;stroke-width:1;"/><polygon fill="#181818" points="101.9,239.0679,92.9,235.0679,96.9,239.0679,92.9,243.0679,101.9,239.0679" style="stroke:#181818;stroke-width:1;"/></g><!--link User to Point--><g class="link" data-entity-1="User" data-entity-2="Point" data-source-line="36" data-uid="lnk24" id="link_User_Point"><path d="M35.07,279.0079 C43.59,300.0079 56.74,324.7079 75.62,341.0679 C89.43,353.0379 101.9935,359.1623 118.9435,364.2523" fill="none" id="User-to-Point" style="stroke:#181818;stroke-width:1;"/><polygon fill="#181818" points="124.69,365.9779,117.2207,359.5585,119.9013,364.5399,114.9198,367.2204,124.69,365.9779" style="stroke:#181818;stroke-width:1;"/></g><!--link User to SlashCommand--><g class="link" data-entity-1="User" data-entity-2="SlashCommand" data-source-line="37" data-uid="lnk25" id="link_User_SlashCommand"><path d="M35.13,199.1979 C43.67,178.2179 56.82,153.5079 75.62,137.0679 C87.68,126.5179 97.5144,121.0331 112.5444,115.7931" fill="none" id="User-to-SlashCommand" style="stroke:#181818;stroke-width:1;"/><polygon fill="#181818" points="118.21,113.8179,108.3949,113.0037,113.4887,115.4639,111.0285,120.5578,118.21,113.8179" style="stroke:#181818;stroke-width:1;"/></g><!--link User to InteractiveCommand--><g class="link" data-entity-1="User" data-entity-2="InteractiveCommand" data-source-line="38" data-uid="lnk26" id="link_User_InteractiveCommand"><path d="M36.72,228.5979 C47.15,221.3379 61.8,211.7979 75.62,205.0679 C92.37,196.9079 105.9099,191.6214 122.7699,185.9814" fill="none" id="User-to-InteractiveCommand" style="stroke:#181818;stroke-width:1;"/><polygon fill="#181818" points="128.46,184.0779,118.6559,183.1397,123.7183,185.6641,121.1939,190.7265,128.46,184.0779" style="stroke:#181818;stroke-width:1;"/></g><!--link Plain to Coding--><g class="link" data-entity-1="Plain" data-entity-2="Coding" data-source-line="40" data-uid="lnk27" id="link_Plain_Coding"><path d="M214.62,294.1879 C236.2,287.4279 263.21,279.1179 287.45,272.0679 C313.38,264.5279 336.6059,258.1263 360.4759,251.7063" fill="none" id="Plain-to-Coding" style="stroke:#181818;stroke-width:1;"/><polygon fill="#181818" points="366.27,250.1479,356.54,248.6227,361.4416,251.4466,358.6178,256.3482,366.27,250.1479" style="stroke:#181818;stroke-width:1;"/></g><!--link Region to Coding--><g class="link" data-entity-1="Region" data-entity-2="Coding" data-source-line="41" data-uid="lnk28" id="link_Region_Coding"><path d="M243.94,238.4879 C274.74,238.2379 304.9602,237.9879 336.1702,237.7279" fill="none" id="Region-to-Coding" style="stroke:#181818;stroke-width:1;"/><polygon fill="#181818" points="342.17,237.6779,333.137,233.753,337.1702,237.7196,333.2036,241.7528,342.17,237.6779" style="stroke:#181818;stroke-width:1;"/></g><!--link Point to RuntimeAssistant--><g class="link" data-entity-1="Point" data-entity-2="RuntimeAssistant" data-source-line="42" data-uid="lnk29" id="link_Point_RuntimeAssistant"><path d="M230.39,376.2379 C257.17,376.7879 283.9213,377.344 314.4113,377.974" fill="none" id="Point-to-RuntimeAssistant" style="stroke:#181818;stroke-width:1;"/><polygon fill="#181818" points="320.41,378.0979,311.4946,373.9128,315.4111,377.9946,311.3293,381.9111,320.41,378.0979" style="stroke:#181818;stroke-width:1;"/></g><!--link Plain to AgentWorkflow--><g class="link" data-entity-1="Plain" data-entity-2="AgentWorkflow" data-source-line="43" data-uid="lnk30" id="link_Plain_AgentWorkflow"><path d="M236.9,306.8079 C269.49,306.6779 303.4401,306.5327 337.3101,306.3927" fill="none" id="Plain-to-AgentWorkflow" style="stroke:#181818;stroke-width:1;"/><polygon fill="#181818" points="343.31,306.3679,334.2935,302.4052,338.31,306.3886,334.3266,310.4051,343.31,306.3679" style="stroke:#181818;stroke-width:1;"/></g><!--link SlashCommand to CommandWorkflow--><g class="link" data-entity-1="SlashCommand" data-entity-2="CommandWorkflow" data-source-line="44" data-uid="lnk31" id="link_SlashCommand_CommandWorkflow"><path d="M224.99,114.5079 C259.75,122.9979 300.4311,132.9252 338.8211,142.2952" fill="none" id="SlashCommand-to-CommandWorkflow" style="stroke:#181818;stroke-width:1;"/><polygon fill="#181818" points="344.65,143.7179,336.8551,137.698,339.7926,142.5323,334.9582,145.4698,344.65,143.7179" style="stroke:#181818;stroke-width:1;"/></g><!--link InteractiveCommand to CommandWorkflow--><g class="link" data-entity-1="InteractiveCommand" data-entity-2="CommandWorkflow" data-source-line="45" data-uid="lnk32" id="link_InteractiveCommand_CommandWorkflow"><path d="M242.32,168.2379 C264.23,167.3379 283.0151,166.5546 306.8351,165.5746" fill="none" id="InteractiveCommand-to-CommandWorkflow" style="stroke:#181818;stroke-width:1;"/><polygon fill="#181818" points="312.83,165.3279,303.6732,161.7013,307.8342,165.5335,304.002,169.6945,312.83,165.3279" style="stroke:#181818;stroke-width:1;"/></g><!--link Coding to CodeTools--><g class="link" data-entity-1="Coding" data-entity-2="CodeTools" data-source-line="47" data-uid="lnk33" id="link_Coding_CodeTools"><path d="M491.57,236.7079 C603.5,236.1579 809.9901,235.1572 932.7301,234.5572" fill="none" id="Coding-to-CodeTools" style="stroke:#181818;stroke-width:1;"/><polygon fill="#181818" points="938.73,234.5279,929.7106,230.572,933.7301,234.5524,929.7497,238.5719,938.73,234.5279" style="stroke:#181818;stroke-width:1;"/></g><!--link RuntimeAssistant to Eval--><g class="link" data-entity-1="RuntimeAssistant" data-entity-2="Eval" data-source-line="48" data-uid="lnk34" id="link_RuntimeAssistant_Eval"><path d="M492.52,393.7179 C512.44,397.0679 533.98,400.4479 553.96,403.0679 C707.47,423.2179 883.856,437.3499 972.656,443.8499" fill="none" id="RuntimeAssistant-to-Eval" style="stroke:#181818;stroke-width:1;"/><polygon fill="#181818" points="978.64,444.2879,969.956,439.6416,973.6533,443.9229,969.372,447.6202,978.64,444.2879" style="stroke:#181818;stroke-width:1;"/></g><!--link AgentWorkflow to Skills--><g class="link" data-entity-1="AgentWorkflow" data-entity-2="Skills" data-source-line="49" data-uid="lnk35" id="link_AgentWorkflow_Skills"><path d="M482.64,313.6679 C598.87,327.2779 835.6007,355 955.9107,369.09" fill="none" id="AgentWorkflow-to-Skills" style="stroke:#181818;stroke-width:1;"/><polygon fill="#181818" points="961.87,369.7879,953.3964,364.7682,956.9039,369.2063,952.4658,372.7139,961.87,369.7879" style="stroke:#181818;stroke-width:1;"/></g><!--link AgentWorkflow to Jobs--><g class="link" data-entity-1="AgentWorkflow" data-entity-2="Jobs" data-source-line="50" data-uid="lnk36" id="link_AgentWorkflow_Jobs"><path d="M490.05,306.1879 C608.15,306.3779 835.06,306.7483 953.6,306.9383" fill="none" id="AgentWorkflow-to-Jobs" style="stroke:#181818;stroke-width:1;"/><polygon fill="#181818" points="959.6,306.9479,950.6064,302.9335,954.6,306.9399,950.5936,310.9335,959.6,306.9479" style="stroke:#181818;stroke-width:1;"/></g><!--link CommandWorkflow to Commands--><g class="link" data-entity-1="CommandWorkflow" data-entity-2="Commands" data-source-line="51" data-uid="lnk37" id="link_CommandWorkflow_Commands"><path d="M521.82,158.4979 C543.18,157.9779 559.7919,157.5672 581.4819,157.0272" fill="none" id="CommandWorkflow-to-Commands" style="stroke:#181818;stroke-width:1;"/><polygon fill="#181818" points="587.48,156.8779,578.3832,153.1032,582.4815,157.0024,578.5823,161.1007,587.48,156.8779" style="stroke:#181818;stroke-width:1;"/></g><!--link Commands to CommandSessions--><g class="link" data-entity-1="Commands" data-entity-2="CommandSessions" data-source-line="52" data-uid="lnk38" id="link_Commands_CommandSessions"><path d="M818.7,154.0679 C854.28,154.0679 887.25,154.0679 922.08,154.0679" fill="none" id="Commands-to-CommandSessions" style="stroke:#181818;stroke-width:1;"/><polygon fill="#181818" points="928.08,154.0679,919.08,150.0679,923.08,154.0679,919.08,158.0679,928.08,154.0679" style="stroke:#181818;stroke-width:1;"/><text fill="#000000" font-family="sans-serif" font-size="13" lengthAdjust="spacing" textLength="48.113" x="849.32" y="149.9649">isolated</text></g><!--link CodeTools to LedgerAudit--><g class="link" data-entity-1="CodeTools" data-entity-2="LedgerAudit" data-source-line="53" data-uid="lnk39" id="link_CodeTools_LedgerAudit"><path d="M1117.72,244.0979 C1146.97,247.6279 1173.3132,250.809 1200.3232,254.069" fill="none" id="CodeTools-to-LedgerAudit" style="stroke:#181818;stroke-width:1;"/><polygon fill="#181818" points="1206.28,254.7879,1197.8242,249.7383,1201.316,254.1888,1196.8655,257.6807,1206.28,254.7879" style="stroke:#181818;stroke-width:1;"/></g><!--link Eval to LedgerAudit--><g class="link" data-entity-1="Eval" data-entity-2="LedgerAudit" data-source-line="54" data-uid="lnk40" id="link_Eval_LedgerAudit"><path d="M1081.02,438.8679 C1100.05,433.6379 1121.64,425.7379 1138.92,414.0679 C1194.06,376.8579 1235.5401,314.5011 1254.1401,283.5411" fill="none" id="Eval-to-LedgerAudit" style="stroke:#181818;stroke-width:1;"/><polygon fill="#181818" points="1257.23,278.3979,1249.1663,284.0528,1254.6551,282.6839,1256.0239,288.1727,1257.23,278.3979" style="stroke:#181818;stroke-width:1;"/></g><!--link Skills to LedgerAudit--><g class="link" data-entity-1="Skills" data-entity-2="LedgerAudit" data-source-line="55" data-uid="lnk41" id="link_Skills_LedgerAudit"><path d="M1084.36,363.4579 C1101.95,357.6279 1121.64,350.3279 1138.92,342.0679 C1178.1,323.3379 1215.2554,298.7141 1239.9754,281.2941" fill="none" id="Skills-to-LedgerAudit" style="stroke:#181818;stroke-width:1;"/><polygon fill="#181818" points="1244.88,277.8379,1235.219,279.7525,1240.7929,280.7181,1239.8273,286.2919,1244.88,277.8379" style="stroke:#181818;stroke-width:1;"/></g><!--link Jobs to LedgerAudit--><g class="link" data-entity-1="Jobs" data-entity-2="LedgerAudit" data-source-line="56" data-uid="lnk42" id="link_Jobs_LedgerAudit"><path d="M1091.37,296.0579 C1128.66,288.8279 1171.2298,280.5705 1207.7298,273.4905" fill="none" id="Jobs-to-LedgerAudit" style="stroke:#181818;stroke-width:1;"/><polygon fill="#181818" points="1213.62,272.3479,1204.023,270.1349,1208.7115,273.3,1205.5464,277.9885,1213.62,272.3479" style="stroke:#181818;stroke-width:1;"/></g><!--link Commands to LedgerAudit--><g class="link" data-entity-1="Commands" data-entity-2="LedgerAudit" data-source-line="57" data-uid="lnk43" id="link_Commands_LedgerAudit"><path d="M759.91,131.4279 C845.9,100.5379 1013.25,55.2579 1138.92,113.0679 C1199.27,140.8279 1239.0255,207.4124 1255.8455,240.1124" fill="none" id="Commands-to-LedgerAudit" style="stroke:#181818;stroke-width:1;"/><polygon fill="#181818" points="1258.59,245.4479,1258.0303,235.615,1256.303,241.0016,1250.9163,239.2742,1258.59,245.4479" style="stroke:#181818;stroke-width:1;"/></g><!--link CommandSessions to LedgerAudit--><g class="link" data-entity-1="CommandSessions" data-entity-2="LedgerAudit" data-source-line="58" data-uid="lnk44" id="link_CommandSessions_LedgerAudit"><path d="M1089.49,174.3479 C1105.57,180.6379 1123.09,187.8279 1138.92,195.0679 C1174.44,211.3079 1208.8333,229.7272 1234.3933,243.9072" fill="none" id="CommandSessions-to-LedgerAudit" style="stroke:#181818;stroke-width:1;"/><polygon fill="#181818" points="1239.64,246.8179,1233.7105,238.954,1235.2678,244.3923,1229.8295,245.9496,1239.64,246.8179" style="stroke:#181818;stroke-width:1;"/></g><!--SRC=[RLDDRzim3BtxLn2z5i7kEmm8YXusBC3GRDXnO6JQPYDBXgWaBORzz-d3TgKa9qkFJ-GZ-UpPQu8TzcGyT2UZF5k36ZI-avD6ZcmcT3Z2Q8rLWxCZWNSdAY8oO6ilR7heK0irZQREWxVWk1yyjEmePMqQLDuw-2NacYQ2QFfG_E7PUFSEasNZvG5G80D_6u2Ja489d4aZ6vX2_Sadpey8b0n7VIXIKbuIKd9GZe0-byfPugbaY4OPGDbnHDCcoZuYJnaecRlDMyNxQZovq26VQM7_gzgCVMywL75I5-kEdRQNtE_lvLRth6mRkIZ24f9anKy9B6dF8oe1TpAUmt9gzaj6jmjO3IFjV56IwDi8BMfABhrDcXNxfUFwsTpl-h3kUpRNI6f0mpBcddVhjMwwOqq2dw1tDCMFjeVmEOGTBEtJJskrLEhY1FxG6NMsJpXKEpsorWAFe7320slsJ5d4FaMgcG-isqrM_6eFcVOj7Eh5v254oqcqwYEmELk5qURbHAfNB5QZftQTeL1OYpLIljZFMFbGKzkJ2qNmr7BUw_S4RUCzJZjQ2pQRB_DViLxdF-0ZdEo-NYjhh-WT8pSfRuhE_ikPIoJbpbMlJVVnkZPOMNzELHlfLifTMfCbB6fcWrpBIE7aZKf5daGsmcqWhVwgNgbX3Kg9Bbk4px1ilLc59MAvmAZf1ioARk2evmQi9Dm9h7Akuly1]--></g></svg>