<svg xmlns="http://www.w3.org/2000/svg" xmlns:xlink="http://www.w3.org/1999/xlink" contentStyleType="text/css" data-diagram-type="DESCRIPTION" height="414px" preserveAspectRatio="none" style="width:962px;height:414px;background:#FFFFFF;" version="1.1" viewBox="0 0 962 414" width="962px" zoomAndPan="magnify"><title>Magent functional layers</title><defs/><g><g class="title" data-source-line="1"><text fill="#000000" font-family="sans-serif" font-size="14" font-weight="bold" lengthAdjust="spacing" textLength="172.7524" x="387.7838" y="24.9659">Magent functional layers</text></g><!--cluster Entry--><g class="cluster" data-entity="Entry" data-source-line="9" data-uid="ent0003" id="cluster_Entry"><rect fill="none" height="292" rx="2.5" ry="2.5" style="stroke:#181818;stroke-width:1;" width="178.83" x="80.62" y="116.0679"/><text fill="#000000" font-family="sans-serif" font-size="14" font-weight="bold" lengthAdjust="spacing" textLength="83.9682" x="128.0509" y="133.0339">Entry points</text></g><!--cluster Workflows--><g class="cluster" data-entity="Workflows" data-source-line="16" data-uid="ent0008" id="cluster_Workflows"><rect fill="none" height="236" rx="2.5" ry="2.5" style="stroke:#181818;stroke-width:1;" width="224.57" x="287.45" y="114.0679"/><text fill="#000000" font-family="sans-serif" font-size="14" font-weight="bold" lengthAdjust="spacing" textLength="155.1194" x="322.1753" y="131.0339">User-facing workflows</text></g><!--cluster Mechanisms--><g class="cluster" data-entity="Mechanisms" data-source-line="22" data-uid="ent0012" id="cluster_Mechanisms"><rect fill="none" height="306" rx="2.5" ry="2.5" style="stroke:#181818;stroke-width:1;" width="416.3" x="540.02" y="47.0679"/><text fill="#000000" font-family="sans-serif" font-size="14" font-weight="bold" lengthAdjust="spacing" textLength="144.3815" x="675.9793" y="64.0339">Magent mechanisms</text></g><!--entity Plain--><g class="entity" data-entity="Plain" data-source-line="10" data-uid="ent0004" id="entity_Plain"><ellipse cx="170.0253" cy="376.071" fill="#F1F1F1" rx="63.5253" ry="16.4831" style="stroke:#181818;stroke-width:0.5;"/><text fill="#000000" font-family="sans-serif" font-size="14" lengthAdjust="spacing" textLength="85.5957" x="127.2274" y="382.1049">plain prompt</text></g><!--entity Region--><g class="entity" data-entity="Region" data-source-line="11" data-uid="ent0005" id="entity_Region"><ellipse cx="170.0277" cy="308.0675" fill="#F1F1F1" rx="70.7477" ry="16.5495" style="stroke:#181818;stroke-width:0.5;"/><text fill="#000000" font-family="sans-serif" font-size="14" lengthAdjust="spacing" textLength="96.2776" x="121.8889" y="314.1014">region prompt</text></g><!--entity Point--><g class="entity" data-entity="Point" data-source-line="12" data-uid="ent0006" id="entity_Point"><ellipse cx="170.0297" cy="240.071" fill="#F1F1F1" rx="57.1797" ry="16.4831" style="stroke:#181818;stroke-width:0.5;"/><text fill="#000000" font-family="sans-serif" font-size="14" lengthAdjust="spacing" textLength="76.6217" x="131.7189" y="246.1049">ask at point</text></g><!--entity SkillCommand--><g class="entity" data-entity="SkillCommand" data-source-line="13" data-uid="ent0007" id="entity_SkillCommand"><ellipse cx="170.0268" cy="171.0713" fill="#F1F1F1" rx="73.4168" ry="17.0834" style="stroke:#181818;stroke-width:0.5;"/><text fill="#000000" font-family="sans-serif" font-size="14" lengthAdjust="spacing" textLength="103.6556" x="118.199" y="177.1052">slash command</text></g><!--entity Coding--><g class="entity" data-entity="Coding" data-source-line="17" data-uid="ent0009" id="entity_Coding"><ellipse cx="399.7444" cy="317.0728" fill="#F1F1F1" rx="74.4744" ry="17.2949" style="stroke:#181818;stroke-width:0.5;"/><text fill="#000000" font-family="sans-serif" font-size="14" lengthAdjust="spacing" textLength="106.5116" x="346.4886" y="323.1068">coding assistant</text></g><!--entity RuntimeAssistant--><g class="entity" data-entity="RuntimeAssistant" data-source-line="18" data-uid="ent0010" id="entity_RuntimeAssistant"><ellipse cx="399.7445" cy="243.0648" fill="#F1F1F1" rx="96.2845" ry="21.6569" style="stroke:#181818;stroke-width:0.5;"/><text fill="#000000" font-family="sans-serif" font-size="14" lengthAdjust="spacing" textLength="160.3694" x="319.5598" y="249.0988">Emacs runtime assistant</text></g><!--entity AgentWorkflow--><g class="entity" data-entity="AgentWorkflow" data-source-line="19" data-uid="ent0011" id="entity_AgentWorkflow"><ellipse cx="399.744" cy="169.0647" fill="#F1F1F1" rx="72.934" ry="16.9868" style="stroke:#181818;stroke-width:0.5;"/><text fill="#000000" font-family="sans-serif" font-size="14" lengthAdjust="spacing" textLength="102.3396" x="348.5742" y="175.0987">agent workflow</text></g><!--entity CodeTools--><g class="entity" data-entity="CodeTools" data-source-line="23" data-uid="ent0013" id="entity_CodeTools"><ellipse cx="650.4878" cy="316.0715" fill="#F1F1F1" rx="94.4678" ry="21.2936" style="stroke:#181818;stroke-width:0.5;"/><text fill="#000000" font-family="sans-serif" font-size="14" lengthAdjust="spacing" textLength="156.1274" x="572.4241" y="322.1054">files / grep / glob / bash</text></g><!--entity Eval--><g class="entity" data-entity="Eval" data-source-line="24" data-uid="ent0014" id="entity_Eval"><ellipse cx="650.4917" cy="243.071" fill="#F1F1F1" rx="56.0017" ry="16.4831" style="stroke:#181818;stroke-width:0.5;"/><text fill="#000000" font-family="sans-serif" font-size="14" lengthAdjust="spacing" textLength="74.9557" x="613.0138" y="249.1049">emacs_eval</text></g><!--entity Skills--><g class="entity" data-entity="Skills" data-source-line="25" data-uid="ent0015" id="entity_Skills"><ellipse cx="650.4909" cy="173.0641" fill="#F1F1F1" rx="79.9309" ry="18.3862" style="stroke:#181818;stroke-width:0.5;"/><text fill="#000000" font-family="sans-serif" font-size="14" lengthAdjust="spacing" textLength="120.7635" x="590.1092" y="179.0981">skills + capabilities</text></g><!--entity Jobs--><g class="entity" data-entity="Jobs" data-source-line="26" data-uid="ent0016" id="entity_Jobs"><ellipse cx="650.4855" cy="102.067" fill="#F1F1F1" rx="73.8455" ry="17.1691" style="stroke:#181818;stroke-width:0.5;"/><text fill="#000000" font-family="sans-serif" font-size="14" lengthAdjust="spacing" textLength="104.8176" x="598.0767" y="108.101">child-agent jobs</text></g><!--entity LedgerAudit--><g class="entity" data-entity="LedgerAudit" data-source-line="27" data-uid="ent0017" id="entity_LedgerAudit"><ellipse cx="872.6431" cy="208.071" fill="#F1F1F1" rx="67.6831" ry="16.4831" style="stroke:#181818;stroke-width:0.5;"/><text fill="#000000" font-family="sans-serif" font-size="14" lengthAdjust="spacing" textLength="91.4756" x="826.9052" y="214.1049">ledger + audit</text></g><!--entity User--><g class="entity" data-entity="User" data-source-line="7" data-uid="ent0002" id="entity_User"><ellipse cx="21.3089" cy="243.0379" fill="#F1F1F1" rx="8" ry="8" style="stroke:#181818;stroke-width:0.5;"/><path d="M21.3089,251.0379 L21.3089,278.0379 M8.3089,259.0379 L34.3089,259.0379 M21.3089,278.0379 L8.3089,293.0379 M21.3089,278.0379 L34.3089,293.0379" fill="none" style="stroke:#181818;stroke-width:0.5;"/><text fill="#000000" font-family="sans-serif" font-size="14" lengthAdjust="spacing" textLength="30.6179" x="6" y="309.5039">User</text></g><!--link User to Plain--><g class="link" data-entity-1="User" data-entity-2="Plain" data-source-line="30" data-uid="lnk18" id="link_User_Plain"><path d="M36.96,301.0279 C45.71,314.9579 57.97,331.2479 72.62,342.0679 C86.89,352.6179 99.0117,358.2911 115.4417,363.5111" fill="none" id="User-to-Plain" style="stroke:#181818;stroke-width:1;"/><polygon fill="#181818" points="121.16,365.3279,113.7937,358.7905,116.3947,363.8139,111.3713,366.415,121.16,365.3279" style="stroke:#181818;stroke-width:1;"/></g><!--link User to Region--><g class="link" data-entity-1="User" data-entity-2="Region" data-source-line="31" data-uid="lnk19" id="link_User_Region"><path d="M36.91,277.4479 C55.83,281.8379 83.9548,288.3539 112.7048,295.0139" fill="none" id="User-to-Region" style="stroke:#181818;stroke-width:1;"/><polygon fill="#181818" points="118.55,296.3679,110.6849,290.44,113.679,295.2395,108.8795,298.2336,118.55,296.3679" style="stroke:#181818;stroke-width:1;"/></g><!--link User to Point--><g class="link" data-entity-1="User" data-entity-2="Point" data-source-line="32" data-uid="lnk20" id="link_User_Point"><path d="M36.91,270.6879 C57.14,265.9979 88.7048,258.6821 118.5748,251.7621" fill="none" id="User-to-Point" style="stroke:#181818;stroke-width:1;"/><polygon fill="#181818" points="124.42,250.4079,114.7494,248.5424,119.549,251.5364,116.555,256.3359,124.42,250.4079" style="stroke:#181818;stroke-width:1;"/></g><!--link User to SkillCommand--><g class="link" data-entity-1="User" data-entity-2="SkillCommand" data-source-line="33" data-uid="lnk21" id="link_User_SkillCommand"><path d="M37,247.1579 C45.76,233.2479 58.02,216.9579 72.62,206.0679 C86.03,196.0579 96.9226,190.6189 112.5126,185.2889" fill="none" id="User-to-SkillCommand" style="stroke:#181818;stroke-width:1;"/><polygon fill="#181818" points="118.19,183.3479,108.3799,182.4745,113.4589,184.9654,110.968,190.0443,118.19,183.3479" style="stroke:#181818;stroke-width:1;"/></g><!--link Plain to Coding--><g class="link" data-entity-1="Plain" data-entity-2="Coding" data-source-line="35" data-uid="lnk22" id="link_Plain_Coding"><path d="M216.29,364.3379 C254.55,354.4279 303.4821,341.7539 343.0121,331.5039" fill="none" id="Plain-to-Coding" style="stroke:#181818;stroke-width:1;"/><polygon fill="#181818" points="348.82,329.9979,339.1041,328.3849,343.9801,331.2529,341.1121,336.1288,348.82,329.9979" style="stroke:#181818;stroke-width:1;"/></g><!--link Region to Coding--><g class="link" data-entity-1="Region" data-entity-2="Coding" data-source-line="36" data-uid="lnk23" id="link_Region_Coding"><path d="M240.28,310.8079 C267.36,311.8779 292.4546,312.8718 319.8746,313.9518" fill="none" id="Region-to-Coding" style="stroke:#181818;stroke-width:1;"/><polygon fill="#181818" points="325.87,314.1879,317.0344,309.8368,320.8739,313.9911,316.7195,317.8306,325.87,314.1879" style="stroke:#181818;stroke-width:1;"/></g><!--link Point to RuntimeAssistant--><g class="link" data-entity-1="Point" data-entity-2="RuntimeAssistant" data-source-line="37" data-uid="lnk24" id="link_Point_RuntimeAssistant"><path d="M227.61,240.8179 C250.53,241.1179 271.6405,241.3888 297.4305,241.7288" fill="none" id="Point-to-RuntimeAssistant" style="stroke:#181818;stroke-width:1;"/><polygon fill="#181818" points="303.43,241.8079,294.4835,237.6896,298.4304,241.742,294.3781,245.6889,303.43,241.8079" style="stroke:#181818;stroke-width:1;"/></g><!--link SkillCommand to AgentWorkflow--><g class="link" data-entity-1="SkillCommand" data-entity-2="AgentWorkflow" data-source-line="38" data-uid="lnk25" id="link_SkillCommand_AgentWorkflow"><path d="M243.71,170.4279 C270.13,170.1979 293.9702,169.9902 320.3602,169.7602" fill="none" id="SkillCommand-to-AgentWorkflow" style="stroke:#181818;stroke-width:1;"/><polygon fill="#181818" points="326.36,169.7079,317.3255,165.7865,321.3602,169.7515,317.3952,173.7862,326.36,169.7079" style="stroke:#181818;stroke-width:1;"/></g><!--link Coding to CodeTools--><g class="link" data-entity-1="Coding" data-entity-2="CodeTools" data-source-line="40" data-uid="lnk26" id="link_Coding_CodeTools"><path d="M474.7,316.7679 C500.19,316.6679 523.08,316.5703 549.93,316.4703" fill="none" id="Coding-to-CodeTools" style="stroke:#181818;stroke-width:1;"/><polygon fill="#181818" points="555.93,316.4479,546.9152,312.4815,550.93,316.4665,546.945,320.4814,555.93,316.4479" style="stroke:#181818;stroke-width:1;"/></g><!--link RuntimeAssistant to Eval--><g class="link" data-entity-1="RuntimeAssistant" data-entity-2="Eval" data-source-line="41" data-uid="lnk27" id="link_RuntimeAssistant_Eval"><path d="M496.2,243.0679 C529.36,243.0679 559.41,243.0679 588.22,243.0679" fill="none" id="RuntimeAssistant-to-Eval" style="stroke:#181818;stroke-width:1;"/><polygon fill="#181818" points="594.22,243.0679,585.22,239.0679,589.22,243.0679,585.22,247.0679,594.22,243.0679" style="stroke:#181818;stroke-width:1;"/></g><!--link AgentWorkflow to Skills--><g class="link" data-entity-1="AgentWorkflow" data-entity-2="Skills" data-source-line="42" data-uid="lnk28" id="link_AgentWorkflow_Skills"><path d="M472.69,170.2279 C503.25,170.7179 532.9808,171.1902 564.2908,171.7002" fill="none" id="AgentWorkflow-to-Skills" style="stroke:#181818;stroke-width:1;"/><polygon fill="#181818" points="570.29,171.7979,561.3563,167.6519,565.2907,171.7165,561.226,175.6508,570.29,171.7979" style="stroke:#181818;stroke-width:1;"/></g><!--link AgentWorkflow to Jobs--><g class="link" data-entity-1="AgentWorkflow" data-entity-2="Jobs" data-source-line="43" data-uid="lnk29" id="link_AgentWorkflow_Jobs"><path d="M448.7,156.1479 C492.46,144.3579 551.0463,128.5777 595.0263,116.7377" fill="none" id="AgentWorkflow-to-Jobs" style="stroke:#181818;stroke-width:1;"/><polygon fill="#181818" points="600.82,115.1779,591.0896,113.6551,595.9919,116.4777,593.1693,121.38,600.82,115.1779" style="stroke:#181818;stroke-width:1;"/></g><!--link CodeTools to LedgerAudit--><g class="link" data-entity-1="CodeTools" data-entity-2="LedgerAudit" data-source-line="44" data-uid="lnk30" id="link_CodeTools_LedgerAudit"><path d="M698.98,297.3679 C713.84,291.2179 730.21,284.1379 744.96,277.0679 C780.41,260.0679 814.8273,240.9565 840.1573,226.4065" fill="none" id="CodeTools-to-LedgerAudit" style="stroke:#181818;stroke-width:1;"/><polygon fill="#181818" points="845.36,223.4179,835.5635,224.4322,841.0244,225.9084,839.5482,231.3692,845.36,223.4179" style="stroke:#181818;stroke-width:1;"/></g><!--link Eval to LedgerAudit--><g class="link" data-entity-1="Eval" data-entity-2="LedgerAudit" data-source-line="45" data-uid="lnk31" id="link_Eval_LedgerAudit"><path d="M700.62,235.2579 C734.46,229.8779 773.5846,223.6611 808.9546,218.0311" fill="none" id="Eval-to-LedgerAudit" style="stroke:#181818;stroke-width:1;"/><polygon fill="#181818" points="814.88,217.0879,805.3631,214.5524,809.9422,217.8739,806.6207,222.4529,814.88,217.0879" style="stroke:#181818;stroke-width:1;"/></g><!--link Skills to LedgerAudit--><g class="link" data-entity-1="Skills" data-entity-2="LedgerAudit" data-source-line="46" data-uid="lnk32" id="link_Skills_LedgerAudit"><path d="M717.24,183.5179 C748.41,188.4779 779.3444,193.3962 809.2344,198.1462" fill="none" id="Skills-to-LedgerAudit" style="stroke:#181818;stroke-width:1;"/><polygon fill="#181818" points="815.16,199.0879,806.8993,193.725,810.222,198.3032,805.6437,201.6258,815.16,199.0879" style="stroke:#181818;stroke-width:1;"/></g><!--link Jobs to LedgerAudit--><g class="link" data-entity-1="Jobs" data-entity-2="LedgerAudit" data-source-line="47" data-uid="lnk33" id="link_Jobs_LedgerAudit"><path d="M693.46,116.2379 C709.76,122.1479 728.45,129.4079 744.96,137.0679 C781.32,153.9479 816.2482,174.1391 841.3882,189.3691" fill="none" id="Jobs-to-LedgerAudit" style="stroke:#181818;stroke-width:1;"/><polygon fill="#181818" points="846.52,192.4779,840.8949,184.3935,842.2435,189.8872,836.7498,191.2358,846.52,192.4779" style="stroke:#181818;stroke-width:1;"/></g><!--SRC=[RLBBRjmm3BphAuXSWqN-eC0YoAL8W28Fv1XmPTfcLvOCKSuYAFhlrSFUbJOzIHmDX-HGWOCXUCA1R81-iJgmisZ0u1TvKN9aEwF72IPddHwzcmY2NwXwaH4xTs8xG8z6I2b3VO3WmFCm1kZOKrPL2dLm7jw4l589H3l4uZSFDlWlc1tR83U00WNuem0M8OqIERD1jZ37-dF8d5y9g1cUXbYafZndfEQW7053ALLKqgrcY44PGRjfGjjboikHZRalWFhRD9ucsVMeq-mdvu-zSQSomViMjLDeroKkYh14aTB3VGPhsiE4Mi0lDd2qksK_5tI_WSruUOjR9vc-Jz3MpLNxwzOdqYDQbgcq_dGEszvxDYHm1uEdEHt67U9nY7PjKz2hSqRg74g3VD0dchBNU6dCJjOAt8B66GziE339nVH6Iezikbtf-BSx5DhFUAb9Xhg1V1J4fUFYrsE6zYbEuwULmMxtO_q_vt3zAvVd_37EOVC9LCxD-BgxabqZERyeNo-irigCTaUgA6nYgwdNAlav-zbaNvgL_pnakywQ6QhjINBVm2Bs3KvIr-0_]--></g></svg>