<svg xmlns="http://www.w3.org/2000/svg" xmlns:xlink="http://www.w3.org/1999/xlink" contentStyleType="text/css" data-diagram-type="SEQUENCE" height="1020px" preserveAspectRatio="none" style="width:2063px;height:1020px;background:#FFFFFF;" version="1.1" viewBox="0 0 2063 1020" width="2063px" zoomAndPan="magnify"><title>One Magent turn</title><defs/><g><text fill="#000000" font-family="sans-serif" font-size="14" font-weight="bold" lengthAdjust="spacing" textLength="119.3531" x="972.9161" y="29.9659">One Magent turn</text><rect fill="none" height="430.1601" style="stroke:#000000;stroke-width:1.5;" width="2014.5674" x="41.6179" y="489.902"/><g><title>User</title><rect fill="#000000" fill-opacity="0.00000" height="812.9263" width="8" x="19.3089" y="124.1358"/><line style="stroke:#181818;stroke-width:0.5;stroke-dasharray:5,5;" x1="23" x2="23" y1="124.1358" y2="937.0621"/></g><g><title>agent-shell</title><rect fill="#000000" fill-opacity="0.00000" height="812.9263" width="8" x="91.1437" y="124.1358"/><line style="stroke:#181818;stroke-width:0.5;stroke-dasharray:5,5;" x1="94.6179" x2="94.6179" y1="124.1358" y2="937.0621"/></g><g><title>magent-runtime-api.el</title><rect fill="#000000" fill-opacity="0.00000" height="812.9263" width="8" x="324.561" y="124.1358"/><line style="stroke:#181818;stroke-width:0.5;stroke-dasharray:5,5;" x1="328.4383" x2="328.4383" y1="124.1358" y2="937.0621"/></g><g><title>magent-runtime-queue.el</title><rect fill="#000000" fill-opacity="0.00000" height="812.9263" width="8" x="507.6213" y="124.1358"/><line style="stroke:#181818;stroke-width:0.5;stroke-dasharray:5,5;" x1="510.6837" x2="510.6837" y1="124.1358" y2="937.0621"/></g><g><title>magent-ledger.el</title><rect fill="#000000" fill-opacity="0.00000" height="812.9263" width="8" x="673.2238" y="124.1358"/><line style="stroke:#181818;stroke-width:0.5;stroke-dasharray:5,5;" x1="676.559" x2="676.559" y1="124.1358" y2="937.0621"/></g><g><title>magent-agent.el</title><rect fill="#000000" fill-opacity="0.00000" height="812.9263" width="8" x="1003.5041" y="124.1358"/><line style="stroke:#181818;stroke-width:0.5;stroke-dasharray:5,5;" x1="1007.0093" x2="1007.0093" y1="124.1358" y2="937.0621"/></g><g><title>magent-llm-gptel.el</title><rect fill="#000000" fill-opacity="0.00000" height="812.9263" width="8" x="1194.4632" y="124.1358"/><line style="stroke:#181818;stroke-width:0.5;stroke-dasharray:5,5;" x1="1197.6994" x2="1197.6994" y1="124.1358" y2="937.0621"/></g><g><title>gptel-request</title><rect fill="#000000" fill-opacity="0.00000" height="812.9263" width="8" x="1419.1314" y="124.1358"/><line style="stroke:#181818;stroke-width:0.5;stroke-dasharray:5,5;" x1="1422.6885" x2="1422.6885" y1="124.1358" y2="937.0621"/></g><g><title>magent-agent-loop.el</title><rect fill="#000000" fill-opacity="0.00000" height="812.9263" width="8" x="1558.9039" y="124.1358"/><line style="stroke:#181818;stroke-width:0.5;stroke-dasharray:5,5;" x1="1562.5742" x2="1562.5742" y1="124.1358" y2="937.0621"/></g><g><title>magent-tool-orchestrator.el</title><rect fill="#000000" fill-opacity="0.00000" height="812.9263" width="8" x="1745.8633" y="124.1358"/><line style="stroke:#181818;stroke-width:0.5;stroke-dasharray:5,5;" x1="1749.2336" x2="1749.2336" y1="124.1358" y2="937.0621"/></g><g><title>magent-tools.el</title><rect fill="#000000" fill-opacity="0.00000" height="812.9263" width="8" x="1983.5675" y="124.1358"/><line style="stroke:#181818;stroke-width:0.5;stroke-dasharray:5,5;" x1="1986.9497" x2="1986.9497" y1="124.1358" y2="937.0621"/></g><g class="participant participant-head" data-participant="User"><text fill="#000000" font-family="sans-serif" font-size="14" lengthAdjust="spacing" textLength="30.6179" x="5" y="120.0339">User</text><ellipse cx="23.3089" cy="53.5679" fill="#E3E3E3" rx="8" ry="8" style="stroke:#181818;stroke-width:0.5;"/><path d="M23.3089,61.5679 L23.3089,88.5679 M10.3089,69.5679 L36.3089,69.5679 M23.3089,88.5679 L10.3089,103.5679 M23.3089,88.5679 L36.3089,103.5679" fill="none" style="stroke:#181818;stroke-width:0.5;"/></g><g class="participant participant-tail" data-participant="User"><text fill="#000000" font-family="sans-serif" font-size="14" lengthAdjust="spacing" textLength="30.6179" x="5" y="951.0281">User</text><ellipse cx="23.3089" cy="963.63" fill="#E3E3E3" rx="8" ry="8" style="stroke:#181818;stroke-width:0.5;"/><path d="M23.3089,971.63 L23.3089,998.63 M10.3089,979.63 L36.3089,979.63 M23.3089,998.63 L10.3089,1013.63 M23.3089,998.63 L36.3089,1013.63" fill="none" style="stroke:#181818;stroke-width:0.5;"/></g><g class="participant participant-head" data-participant="UI"><rect fill="#E3E3E3" height="33.0679" rx="2.5" ry="2.5" style="stroke:#181818;stroke-width:0.5;" width="87.0517" x="51.6179" y="90.0679"/><text fill="#000000" font-family="sans-serif" font-size="14" lengthAdjust="spacing" textLength="73.0517" x="58.6179" y="112.0339">agent-shell</text></g><g class="participant participant-tail" data-participant="UI"><rect fill="#E3E3E3" height="33.0679" rx="2.5" ry="2.5" style="stroke:#181818;stroke-width:0.5;" width="87.0517" x="51.6179" y="936.0621"/><text fill="#000000" font-family="sans-serif" font-size="14" lengthAdjust="spacing" textLength="73.0517" x="58.6179" y="958.0281">agent-shell</text></g><g class="participant participant-head" data-participant="Runtime"><rect fill="#E3E3E3" height="33.0679" rx="2.5" ry="2.5" style="stroke:#181818;stroke-width:0.5;" width="162.2454" x="247.4383" y="90.0679"/><text fill="#000000" font-family="sans-serif" font-size="14" lengthAdjust="spacing" textLength="148.2454" x="254.4383" y="112.0339">magent-runtime-api.el</text></g><g class="participant participant-tail" data-participant="Runtime"><rect fill="#E3E3E3" height="33.0679" rx="2.5" ry="2.5" style="stroke:#181818;stroke-width:0.5;" width="162.2454" x="247.4383" y="936.0621"/><text fill="#000000" font-family="sans-serif" font-size="14" lengthAdjust="spacing" textLength="148.2454" x="254.4383" y="958.0281">magent-runtime-api.el</text></g><g class="participant participant-head" data-participant="Queue"><rect fill="#E3E3E3" height="33.0679" rx="2.5" ry="2.5" style="stroke:#181818;stroke-width:0.5;" width="183.8753" x="419.6837" y="90.0679"/><text fill="#000000" font-family="sans-serif" font-size="14" lengthAdjust="spacing" textLength="169.8753" x="426.6837" y="112.0339">magent-runtime-queue.el</text></g><g class="participant participant-tail" data-participant="Queue"><rect fill="#E3E3E3" height="33.0679" rx="2.5" ry="2.5" style="stroke:#181818;stroke-width:0.5;" width="183.8753" x="419.6837" y="936.0621"/><text fill="#000000" font-family="sans-serif" font-size="14" lengthAdjust="spacing" textLength="169.8753" x="426.6837" y="958.0281">magent-runtime-queue.el</text></g><g class="participant participant-head" data-participant="Ledger"><rect fill="#E3E3E3" height="33.0679" rx="2.5" ry="2.5" style="stroke:#181818;stroke-width:0.5;" width="127.3296" x="613.559" y="90.0679"/><text fill="#000000" font-family="sans-serif" font-size="14" lengthAdjust="spacing" textLength="113.3296" x="620.559" y="112.0339">magent-ledger.el</text></g><g class="participant participant-tail" data-participant="Ledger"><rect fill="#E3E3E3" height="33.0679" rx="2.5" ry="2.5" style="stroke:#181818;stroke-width:0.5;" width="127.3296" x="613.559" y="936.0621"/><text fill="#000000" font-family="sans-serif" font-size="14" lengthAdjust="spacing" textLength="113.3296" x="620.559" y="958.0281">magent-ledger.el</text></g><g class="participant participant-head" data-participant="Agent"><rect fill="#E3E3E3" height="33.0679" rx="2.5" ry="2.5" style="stroke:#181818;stroke-width:0.5;" width="122.9896" x="946.0093" y="90.0679"/><text fill="#000000" font-family="sans-serif" font-size="14" lengthAdjust="spacing" textLength="108.9896" x="953.0093" y="112.0339">magent-agent.el</text></g><g class="participant participant-tail" data-participant="Agent"><rect fill="#E3E3E3" height="33.0679" rx="2.5" ry="2.5" style="stroke:#181818;stroke-width:0.5;" width="122.9896" x="946.0093" y="936.0621"/><text fill="#000000" font-family="sans-serif" font-size="14" lengthAdjust="spacing" textLength="108.9896" x="953.0093" y="958.0281">magent-agent.el</text></g><g class="participant participant-head" data-participant="Adapter"><rect fill="#E3E3E3" height="33.0679" rx="2.5" ry="2.5" style="stroke:#181818;stroke-width:0.5;" width="143.5275" x="1126.6994" y="90.0679"/><text fill="#000000" font-family="sans-serif" font-size="14" lengthAdjust="spacing" textLength="129.5275" x="1133.6994" y="112.0339">magent-llm-gptel.el</text></g><g class="participant participant-tail" data-participant="Adapter"><rect fill="#E3E3E3" height="33.0679" rx="2.5" ry="2.5" style="stroke:#181818;stroke-width:0.5;" width="143.5275" x="1126.6994" y="936.0621"/><text fill="#000000" font-family="sans-serif" font-size="14" lengthAdjust="spacing" textLength="129.5275" x="1133.6994" y="958.0281">magent-llm-gptel.el</text></g><g class="participant participant-head" data-participant="Gptel"><rect fill="#E3E3E3" height="33.0679" rx="2.5" ry="2.5" style="stroke:#181818;stroke-width:0.5;" width="102.8857" x="1371.6885" y="90.0679"/><text fill="#000000" font-family="sans-serif" font-size="14" lengthAdjust="spacing" textLength="88.8857" x="1378.6885" y="112.0339">gptel-request</text></g><g class="participant participant-tail" data-participant="Gptel"><rect fill="#E3E3E3" height="33.0679" rx="2.5" ry="2.5" style="stroke:#181818;stroke-width:0.5;" width="102.8857" x="1371.6885" y="936.0621"/><text fill="#000000" font-family="sans-serif" font-size="14" lengthAdjust="spacing" textLength="88.8857" x="1378.6885" y="958.0281">gptel-request</text></g><g class="participant participant-head" data-participant="Loop"><rect fill="#E3E3E3" height="33.0679" rx="2.5" ry="2.5" style="stroke:#181818;stroke-width:0.5;" width="156.6595" x="1484.5742" y="90.0679"/><text fill="#000000" font-family="sans-serif" font-size="14" lengthAdjust="spacing" textLength="142.6595" x="1491.5742" y="112.0339">magent-agent-loop.el</text></g><g class="participant participant-tail" data-participant="Loop"><rect fill="#E3E3E3" height="33.0679" rx="2.5" ry="2.5" style="stroke:#181818;stroke-width:0.5;" width="156.6595" x="1484.5742" y="936.0621"/><text fill="#000000" font-family="sans-serif" font-size="14" lengthAdjust="spacing" textLength="142.6595" x="1491.5742" y="958.0281">magent-agent-loop.el</text></g><g class="participant participant-head" data-participant="Orchestrator"><rect fill="#E3E3E3" height="33.0679" rx="2.5" ry="2.5" style="stroke:#181818;stroke-width:0.5;" width="197.2593" x="1651.2336" y="90.0679"/><text fill="#000000" font-family="sans-serif" font-size="14" lengthAdjust="spacing" textLength="183.2593" x="1658.2336" y="112.0339">magent-tool-orchestrator.el</text></g><g class="participant participant-tail" data-participant="Orchestrator"><rect fill="#E3E3E3" height="33.0679" rx="2.5" ry="2.5" style="stroke:#181818;stroke-width:0.5;" width="197.2593" x="1651.2336" y="936.0621"/><text fill="#000000" font-family="sans-serif" font-size="14" lengthAdjust="spacing" textLength="183.2593" x="1658.2336" y="958.0281">magent-tool-orchestrator.el</text></g><g class="participant participant-head" data-participant="Tools"><rect fill="#E3E3E3" height="33.0679" rx="2.5" ry="2.5" style="stroke:#181818;stroke-width:0.5;" width="117.2356" x="1928.9497" y="90.0679"/><text fill="#000000" font-family="sans-serif" font-size="14" lengthAdjust="spacing" textLength="103.2356" x="1935.9497" y="112.0339">magent-tools.el</text></g><g class="participant participant-tail" data-participant="Tools"><rect fill="#E3E3E3" height="33.0679" rx="2.5" ry="2.5" style="stroke:#181818;stroke-width:0.5;" width="117.2356" x="1928.9497" y="936.0621"/><text fill="#000000" font-family="sans-serif" font-size="14" lengthAdjust="spacing" textLength="103.2356" x="1935.9497" y="958.0281">magent-tools.el</text></g><g class="message" data-participant-1="User" data-participant-2="UI"><polygon fill="#181818" points="83.1437,153.8419,93.1437,157.8419,83.1437,161.8419,87.1437,157.8419" style="stroke:#181818;stroke-width:1;"/><line style="stroke:#181818;stroke-width:1;" x1="23.3089" x2="89.1437" y1="157.8419" y2="157.8419"/><text fill="#000000" font-family="sans-serif" font-size="13" lengthAdjust="spacing" textLength="46.0721" x="30.3089" y="152.0328">prompt</text></g><g class="message" data-participant-1="UI" data-participant-2="Runtime"><polygon fill="#181818" points="316.561,185.5479,326.561,189.5479,316.561,193.5479,320.561,189.5479" style="stroke:#181818;stroke-width:1;"/><line style="stroke:#181818;stroke-width:1;" x1="95.1437" x2="322.561" y1="189.5479" y2="189.5479"/><text fill="#000000" font-family="sans-serif" font-size="13" lengthAdjust="spacing" textLength="209.4172" x="102.1437" y="183.7389">submit(prompt, session, observer)</text></g><g class="message" data-participant-1="Runtime" data-participant-2="Ledger"><polygon fill="#181818" points="665.2238,217.2539,675.2238,221.2539,665.2238,225.2539,669.2238,221.2539" style="stroke:#181818;stroke-width:1;"/><line style="stroke:#181818;stroke-width:1;" x1="328.561" x2="671.2238" y1="221.2539" y2="221.2539"/><text fill="#000000" font-family="sans-serif" font-size="13" lengthAdjust="spacing" textLength="140.3091" x="335.561" y="215.4449">queue turn + user item</text></g><g class="message" data-participant-1="Runtime" data-participant-2="Queue"><polygon fill="#181818" points="499.6213,248.9599,509.6213,252.9599,499.6213,256.9599,503.6213,252.9599" style="stroke:#181818;stroke-width:1;"/><line style="stroke:#181818;stroke-width:1;" x1="328.561" x2="505.6213" y1="252.9599" y2="252.9599"/><text fill="#000000" font-family="sans-serif" font-size="13" lengthAdjust="spacing" textLength="126.9451" x="335.561" y="247.1509">enqueue submission</text></g><g class="message" data-participant-1="Queue" data-participant-2="Runtime"><polygon fill="#181818" points="339.561,280.6659,329.561,284.6659,339.561,288.6659,335.561,284.6659" style="stroke:#181818;stroke-width:1;"/><line style="stroke:#181818;stroke-width:1;" x1="333.561" x2="510.6213" y1="284.6659" y2="284.6659"/><text fill="#000000" font-family="sans-serif" font-size="13" lengthAdjust="spacing" textLength="157.5731" x="345.561" y="278.8569">start when active slot free</text></g><g class="message" data-participant-1="Runtime" data-participant-2="Agent"><polygon fill="#181818" points="995.5041,312.3719,1005.5041,316.3719,995.5041,320.3719,999.5041,316.3719" style="stroke:#181818;stroke-width:1;"/><line style="stroke:#181818;stroke-width:1;" x1="328.561" x2="1001.5041" y1="316.3719" y2="316.3719"/><text fill="#000000" font-family="sans-serif" font-size="13" lengthAdjust="spacing" textLength="50.9471" x="335.561" y="310.5629">run turn</text></g><g class="message" data-participant-1="Agent" data-participant-2="Ledger"><polygon fill="#181818" points="688.2238,344.0779,678.2238,348.0779,688.2238,352.0779,684.2238,348.0779" style="stroke:#181818;stroke-width:1;"/><line style="stroke:#181818;stroke-width:1;" x1="682.2238" x2="1006.5041" y1="348.0779" y2="348.0779"/><text fill="#000000" font-family="sans-serif" font-size="13" lengthAdjust="spacing" textLength="306.2803" x="694.2238" y="342.2689">build prompt from completed turns + current turn</text></g><g class="message" data-participant-1="Agent" data-participant-2="Adapter"><polygon fill="#181818" points="1186.4632,375.784,1196.4632,379.784,1186.4632,383.784,1190.4632,379.784" style="stroke:#181818;stroke-width:1;"/><line style="stroke:#181818;stroke-width:1;" x1="1007.5041" x2="1192.4632" y1="379.784" y2="379.784"/><text fill="#000000" font-family="sans-serif" font-size="13" lengthAdjust="spacing" textLength="166.9591" x="1014.5041" y="373.975">sample normalized request</text></g><g class="message" data-participant-1="Adapter" data-participant-2="Gptel"><polygon fill="#181818" points="1411.1314,407.49,1421.1314,411.49,1411.1314,415.49,1415.1314,411.49" style="stroke:#181818;stroke-width:1;"/><line style="stroke:#181818;stroke-width:1;" x1="1198.4632" x2="1417.1314" y1="411.49" y2="411.49"/><text fill="#000000" font-family="sans-serif" font-size="13" lengthAdjust="spacing" textLength="82.5371" x="1205.4632" y="405.681">gptel-request</text></g><g class="message" data-participant-1="Gptel" data-participant-2="Adapter"><polygon fill="#181818" points="1209.4632,439.196,1199.4632,443.196,1209.4632,447.196,1205.4632,443.196" style="stroke:#181818;stroke-width:1;"/><line style="stroke:#181818;stroke-width:1;stroke-dasharray:2,2;" x1="1203.4632" x2="1422.1314" y1="443.196" y2="443.196"/><text fill="#000000" font-family="sans-serif" font-size="13" lengthAdjust="spacing" textLength="200.6682" x="1215.4632" y="437.387">text / reasoning / tool-use / done</text></g><g class="message" data-participant-1="Adapter" data-participant-2="Loop"><polygon fill="#181818" points="1550.9039,470.902,1560.9039,474.902,1550.9039,478.902,1554.9039,474.902" style="stroke:#181818;stroke-width:1;"/><line style="stroke:#181818;stroke-width:1;stroke-dasharray:2,2;" x1="1198.4632" x2="1556.9039" y1="474.902" y2="474.902"/><text fill="#000000" font-family="sans-serif" font-size="13" lengthAdjust="spacing" textLength="112.4631" x="1205.4632" y="469.093">normalized events</text></g><path d="M41.6179,489.902 L103.1767,489.902 L103.1767,499.608 L93.1767,509.608 L41.6179,509.608 L41.6179,489.902" fill="#EEEEEE" style="stroke:#000000;stroke-width:1.5;"/><rect fill="none" height="430.1601" style="stroke:#000000;stroke-width:1.5;" width="2014.5674" x="41.6179" y="489.902"/><text fill="#000000" font-family="sans-serif" font-size="13" font-weight="bold" lengthAdjust="spacing" textLength="16.5588" x="56.6179" y="504.799">alt</text><text fill="#000000" font-family="sans-serif" font-size="11" font-weight="bold" lengthAdjust="spacing" textLength="111.08" x="118.1767" y="503.6609">[tool-call-batch-end]</text><g class="message" data-participant-1="Loop" data-participant-2="Orchestrator"><polygon fill="#181818" points="1737.8633,529.314,1747.8633,533.314,1737.8633,537.314,1741.8633,533.314" style="stroke:#181818;stroke-width:1;"/><line style="stroke:#181818;stroke-width:1;" x1="1562.9039" x2="1743.8633" y1="533.314" y2="533.314"/><text fill="#000000" font-family="sans-serif" font-size="13" lengthAdjust="spacing" textLength="108.8361" x="1569.9039" y="527.505">dispatch tool calls</text></g><g class="message" data-participant-1="Orchestrator" data-participant-2="Orchestrator"><line style="stroke:#181818;stroke-width:1;" x1="1749.8633" x2="1791.8633" y1="565.0201" y2="565.0201"/><line style="stroke:#181818;stroke-width:1;" x1="1791.8633" x2="1791.8633" y1="565.0201" y2="578.0201"/><line style="stroke:#181818;stroke-width:1;" x1="1750.8633" x2="1791.8633" y1="578.0201" y2="578.0201"/><polygon fill="#181818" points="1760.8633,574.0201,1750.8633,578.0201,1760.8633,582.0201,1756.8633,578.0201" style="stroke:#181818;stroke-width:1;"/><text fill="#000000" font-family="sans-serif" font-size="13" lengthAdjust="spacing" textLength="223.7042" x="1756.8633" y="559.2111">resolve permission / approval / audit</text></g><g class="message" data-participant-1="Orchestrator" data-participant-2="Tools"><polygon fill="#181818" points="1975.5675,605.7261,1985.5675,609.7261,1975.5675,613.7261,1979.5675,609.7261" style="stroke:#181818;stroke-width:1;"/><line style="stroke:#181818;stroke-width:1;" x1="1749.8633" x2="1981.5675" y1="609.7261" y2="609.7261"/><text fill="#000000" font-family="sans-serif" font-size="13" lengthAdjust="spacing" textLength="94.1331" x="1756.8633" y="603.9171">execute serially</text></g><g class="message" data-participant-1="Tools" data-participant-2="Orchestrator"><polygon fill="#181818" points="1760.8633,637.4321,1750.8633,641.4321,1760.8633,645.4321,1756.8633,641.4321" style="stroke:#181818;stroke-width:1;"/><line style="stroke:#181818;stroke-width:1;stroke-dasharray:2,2;" x1="1754.8633" x2="1986.5675" y1="641.4321" y2="641.4321"/><text fill="#000000" font-family="sans-serif" font-size="13" lengthAdjust="spacing" textLength="35.009" x="1766.8633" y="635.6231">result</text></g><g class="message" data-participant-1="Orchestrator" data-participant-2="Loop"><polygon fill="#181818" points="1573.9039,669.1381,1563.9039,673.1381,1573.9039,677.1381,1569.9039,673.1381" style="stroke:#181818;stroke-width:1;"/><line style="stroke:#181818;stroke-width:1;stroke-dasharray:2,2;" x1="1567.9039" x2="1748.8633" y1="673.1381" y2="673.1381"/><text fill="#000000" font-family="sans-serif" font-size="13" lengthAdjust="spacing" textLength="68.4711" x="1579.9039" y="667.3291">tool output</text></g><g class="message" data-participant-1="Loop" data-participant-2="Ledger"><polygon fill="#181818" points="688.2238,700.8441,678.2238,704.8441,688.2238,708.8441,684.2238,704.8441" style="stroke:#181818;stroke-width:1;"/><line style="stroke:#181818;stroke-width:1;" x1="682.2238" x2="1561.9039" y1="704.8441" y2="704.8441"/><text fill="#000000" font-family="sans-serif" font-size="13" lengthAdjust="spacing" textLength="101.4131" x="694.2238" y="699.0351">update tool item</text></g><g class="message" data-participant-1="Loop" data-participant-2="Agent"><polygon fill="#181818" points="1018.5041,732.5501,1008.5041,736.5501,1018.5041,740.5501,1014.5041,736.5501" style="stroke:#181818;stroke-width:1;"/><line style="stroke:#181818;stroke-width:1;" x1="1012.5041" x2="1561.9039" y1="736.5501" y2="736.5501"/><text fill="#000000" font-family="sans-serif" font-size="13" lengthAdjust="spacing" textLength="157.4301" x="1024.5041" y="730.7411">needs follow-up sampling</text></g><g class="message" data-participant-1="Agent" data-participant-2="Ledger"><polygon fill="#181818" points="688.2238,764.2562,678.2238,768.2562,688.2238,772.2562,684.2238,768.2562" style="stroke:#181818;stroke-width:1;"/><line style="stroke:#181818;stroke-width:1;" x1="682.2238" x2="1006.5041" y1="768.2562" y2="768.2562"/><text fill="#000000" font-family="sans-serif" font-size="13" lengthAdjust="spacing" textLength="194.4152" x="694.2238" y="762.4472">rebuild prompt with tool output</text></g><g class="message" data-participant-1="Agent" data-participant-2="Adapter"><polygon fill="#181818" points="1186.4632,795.9622,1196.4632,799.9622,1186.4632,803.9622,1190.4632,799.9622" style="stroke:#181818;stroke-width:1;"/><line style="stroke:#181818;stroke-width:1;" x1="1007.5041" x2="1192.4632" y1="799.9622" y2="799.9622"/><text fill="#000000" font-family="sans-serif" font-size="13" lengthAdjust="spacing" textLength="113.3731" x="1014.5041" y="794.1532">continue sampling</text></g><line style="stroke:#000000;stroke-width:1;stroke-dasharray:2,2;" x1="41.6179" x2="2056.1853" y1="808.9622" y2="808.9622"/><text fill="#000000" font-family="sans-serif" font-size="11" font-weight="bold" lengthAdjust="spacing" textLength="65.9858" x="46.6179" y="820.7211">[completed]</text><g class="message" data-participant-1="Loop" data-participant-2="Ledger"><polygon fill="#181818" points="688.2238,844.6501,678.2238,848.6501,688.2238,852.6501,684.2238,848.6501" style="stroke:#181818;stroke-width:1;"/><line style="stroke:#181818;stroke-width:1;" x1="682.2238" x2="1561.9039" y1="848.6501" y2="848.6501"/><text fill="#000000" font-family="sans-serif" font-size="13" lengthAdjust="spacing" textLength="185.6272" x="694.2238" y="842.8411">complete assistant item + turn</text></g><g class="message" data-participant-1="Loop" data-participant-2="Runtime"><polygon fill="#181818" points="339.561,876.3561,329.561,880.3561,339.561,884.3561,335.561,880.3561" style="stroke:#181818;stroke-width:1;"/><line style="stroke:#181818;stroke-width:1;stroke-dasharray:2,2;" x1="333.561" x2="1561.9039" y1="880.3561" y2="880.3561"/><text fill="#000000" font-family="sans-serif" font-size="13" lengthAdjust="spacing" textLength="64.8961" x="345.561" y="874.5471">final result</text></g><g class="message" data-participant-1="Runtime" data-participant-2="UI"><polygon fill="#181818" points="106.1437,908.0621,96.1437,912.0621,106.1437,916.0621,102.1437,912.0621" style="stroke:#181818;stroke-width:1;"/><line style="stroke:#181818;stroke-width:1;stroke-dasharray:2,2;" x1="100.1437" x2="327.561" y1="912.0621" y2="912.0621"/><text fill="#000000" font-family="sans-serif" font-size="13" lengthAdjust="spacing" textLength="93.4441" x="112.1437" y="906.2531">session/update</text></g><!--SRC=[VLH1ZjGm4Bpd5QqzWTWmTmv8d10IQ0LY7-19UYOMZctizip2wodRIIRPpN8PsUsgSgUhFAB5C3rOfc_gp5P8Kh1D_AMjLq6DD3hhkY6uaKb2ujL975JlhjgUwQHCvAPHdRX0Zv530uJeJdi5mRkYsyQ1ZRaZ5Udno_Pyh82GhEYHM-NrUwx87xNqN_Zln8bdmlUysOKRxiySPjpNiji5bjyPzoblzlNCs9wzi5cWlSBscMP1j87HP9G2-vmhhr_S6kVyqYNMkr1nphGkT0DKWyBKPyR3glOgCyxedtdJDDanQZ_25_f07bPxQR16PPe_oZ4THorlwkazHOvHEtjFxWZoXSFRPiQ2LgSBLl6c98hUKShNQE5n3Is60ScsOiizHRkfHzik19z4ru4j8Mpw0hnnGgV0l1OjhW6EYDGuryAwisFIffy-5dmtKeUbOU6-K28Qxb88oujO92QVSpSgCyYwC2gZ_u8v6TtC6C2Btm1laj3KQhkH4tuIEa13HMVpipfGyHbpmx9tbc-w-LCG3h1Mj_C5BS9FPQGoEsLCUrJI3ItRlg7A0NST4sZqElgCAYpAh0Zm1lII53Ww0mSyXyanTAayHdfH9YzJhsL7feGkE_x4NH8uo47ZnZ-0rgDszwvaNehTfb0QTqbyajLdBcudtojSLL0bWJVCd1NBt4SwEMFSjKs-cWiN07sPdi2R_5or3CzQs8bBvn1GcpC-IpF-Dc-vssjyFiHhZHhfXsRk7-4iePmPcqToqXO6B2DRtiNymgUtUwX3QP2CVm00]--></g></svg>