<svg xmlns="http://www.w3.org/2000/svg" xmlns:xlink="http://www.w3.org/1999/xlink" contentStyleType="text/css" data-diagram-type="SEQUENCE" height="1412px" preserveAspectRatio="none" style="width:2509px;height:1412px;background:#FFFFFF;" version="1.1" viewBox="0 0 2509 1412" width="2509px" zoomAndPan="magnify"><title>One Magent agent turn</title><defs/><g><text fill="#000000" font-family="sans-serif" font-size="14" font-weight="bold" lengthAdjust="spacing" textLength="163.2464" x="1174.3036" y="29.9659">One Magent agent turn</text><rect fill="none" height="176.512" style="stroke:#000000;stroke-width:1.5;" width="600.3889" x="265.9631" y="204.5479"/><rect fill="none" height="575.9661" style="stroke:#000000;stroke-width:1.5;" width="2461.2357" x="41.6179" y="735.826"/><rect fill="none" height="131.806" style="stroke:#000000;stroke-width:1.5;" width="600.3889" x="265.9631" y="1141.2801"/><g><title>User</title><rect fill="#000000" fill-opacity="0.00000" height="1204.6562" width="8" x="19.3089" y="124.1358"/><line style="stroke:#181818;stroke-width:0.5;stroke-dasharray:5,5;" x1="23" x2="23" y1="124.1358" y2="1328.7921"/></g><g><title>agent-shell</title><rect fill="#000000" fill-opacity="0.00000" height="1204.6562" width="8" x="91.1437" y="124.1358"/><line style="stroke:#181818;stroke-width:0.5;stroke-dasharray:5,5;" x1="94.6179" x2="94.6179" y1="124.1358" y2="1328.7921"/></g><g><title>magent-acp.el</title><rect fill="#000000" fill-opacity="0.00000" height="1204.6562" width="8" x="326.0169" y="124.1358"/><line style="stroke:#181818;stroke-width:0.5;stroke-dasharray:5,5;" x1="329.9631" x2="329.9631" y1="124.1358" y2="1328.7921"/></g><g><title>magent-command.el</title><rect fill="#000000" fill-opacity="0.00000" height="1204.6562" width="8" x="530.2231" y="124.1358"/><line style="stroke:#181818;stroke-width:0.5;stroke-dasharray:5,5;" x1="533.5184" x2="533.5184" y1="124.1358" y2="1328.7921"/></g><g><title>magent-runtime-api.el</title><rect fill="#000000" fill-opacity="0.00000" height="1204.6562" width="8" x="771.2293" y="124.1358"/><line style="stroke:#181818;stroke-width:0.5;stroke-dasharray:5,5;" x1="775.1066" x2="775.1066" y1="124.1358" y2="1328.7921"/></g><g><title>magent-runtime-queue.el</title><rect fill="#000000" fill-opacity="0.00000" height="1204.6562" width="8" x="954.2897" y="124.1358"/><line style="stroke:#181818;stroke-width:0.5;stroke-dasharray:5,5;" x1="957.352" x2="957.352" y1="124.1358" y2="1328.7921"/></g><g><title>magent-ledger.el</title><rect fill="#000000" fill-opacity="0.00000" height="1204.6562" width="8" x="1119.8921" y="124.1358"/><line style="stroke:#181818;stroke-width:0.5;stroke-dasharray:5,5;" x1="1123.2273" x2="1123.2273" y1="124.1358" y2="1328.7921"/></g><g><title>magent-agent.el</title><rect fill="#000000" fill-opacity="0.00000" height="1204.6562" width="8" x="1450.1724" y="124.1358"/><line style="stroke:#181818;stroke-width:0.5;stroke-dasharray:5,5;" x1="1453.6776" x2="1453.6776" y1="124.1358" y2="1328.7921"/></g><g><title>magent-llm-gptel.el</title><rect fill="#000000" fill-opacity="0.00000" height="1204.6562" width="8" x="1641.1315" y="124.1358"/><line style="stroke:#181818;stroke-width:0.5;stroke-dasharray:5,5;" x1="1644.3678" x2="1644.3678" y1="124.1358" y2="1328.7921"/></g><g><title>gptel-request</title><rect fill="#000000" fill-opacity="0.00000" height="1204.6562" width="8" x="1865.7997" y="124.1358"/><line style="stroke:#181818;stroke-width:0.5;stroke-dasharray:5,5;" x1="1869.3569" x2="1869.3569" y1="124.1358" y2="1328.7921"/></g><g><title>magent-agent-loop.el</title><rect fill="#000000" fill-opacity="0.00000" height="1204.6562" width="8" x="2005.5723" y="124.1358"/><line style="stroke:#181818;stroke-width:0.5;stroke-dasharray:5,5;" x1="2009.2425" x2="2009.2425" y1="124.1358" y2="1328.7921"/></g><g><title>magent-tool-orchestrator.el</title><rect fill="#000000" fill-opacity="0.00000" height="1204.6562" width="8" x="2192.5317" y="124.1358"/><line style="stroke:#181818;stroke-width:0.5;stroke-dasharray:5,5;" x1="2195.902" x2="2195.902" y1="124.1358" y2="1328.7921"/></g><g><title>magent-tools.el</title><rect fill="#000000" fill-opacity="0.00000" height="1204.6562" width="8" x="2430.2358" y="124.1358"/><line style="stroke:#181818;stroke-width:0.5;stroke-dasharray:5,5;" x1="2433.618" x2="2433.618" y1="124.1358" y2="1328.7921"/></g><g class="participant participant-head" data-participant="User"><text fill="#000000" font-family="sans-serif" font-size="14" lengthAdjust="spacing" textLength="30.6179" x="5" y="120.0339">User</text><ellipse cx="23.3089" cy="53.5679" fill="#E3E3E3" rx="8" ry="8" style="stroke:#181818;stroke-width:0.5;"/><path d="M23.3089,61.5679 L23.3089,88.5679 M10.3089,69.5679 L36.3089,69.5679 M23.3089,88.5679 L10.3089,103.5679 M23.3089,88.5679 L36.3089,103.5679" fill="none" style="stroke:#181818;stroke-width:0.5;"/></g><g class="participant participant-tail" data-participant="User"><text fill="#000000" font-family="sans-serif" font-size="14" lengthAdjust="spacing" textLength="30.6179" x="5" y="1342.758">User</text><ellipse cx="23.3089" cy="1355.36" fill="#E3E3E3" rx="8" ry="8" style="stroke:#181818;stroke-width:0.5;"/><path d="M23.3089,1363.36 L23.3089,1390.36 M10.3089,1371.36 L36.3089,1371.36 M23.3089,1390.36 L10.3089,1405.36 M23.3089,1390.36 L36.3089,1405.36" fill="none" style="stroke:#181818;stroke-width:0.5;"/></g><g class="participant participant-head" data-participant="UI"><rect fill="#E3E3E3" height="33.0679" rx="2.5" ry="2.5" style="stroke:#181818;stroke-width:0.5;" width="87.0517" x="51.6179" y="90.0679"/><text fill="#000000" font-family="sans-serif" font-size="14" lengthAdjust="spacing" textLength="73.0517" x="58.6179" y="112.0339">agent-shell</text></g><g class="participant participant-tail" data-participant="UI"><rect fill="#E3E3E3" height="33.0679" rx="2.5" ry="2.5" style="stroke:#181818;stroke-width:0.5;" width="87.0517" x="51.6179" y="1327.7921"/><text fill="#000000" font-family="sans-serif" font-size="14" lengthAdjust="spacing" textLength="73.0517" x="58.6179" y="1349.758">agent-shell</text></g><g class="participant participant-head" data-participant="ACP"><rect fill="#E3E3E3" height="33.0679" rx="2.5" ry="2.5" style="stroke:#181818;stroke-width:0.5;" width="108.1076" x="275.9631" y="90.0679"/><text fill="#000000" font-family="sans-serif" font-size="14" lengthAdjust="spacing" textLength="94.1076" x="282.9631" y="112.0339">magent-acp.el</text></g><g class="participant participant-tail" data-participant="ACP"><rect fill="#E3E3E3" height="33.0679" rx="2.5" ry="2.5" style="stroke:#181818;stroke-width:0.5;" width="108.1076" x="275.9631" y="1327.7921"/><text fill="#000000" font-family="sans-serif" font-size="14" lengthAdjust="spacing" textLength="94.1076" x="282.9631" y="1349.758">magent-acp.el</text></g><g class="participant participant-head" data-participant="Command"><rect fill="#E3E3E3" height="33.0679" rx="2.5" ry="2.5" style="stroke:#181818;stroke-width:0.5;" width="151.4095" x="458.5184" y="90.0679"/><text fill="#000000" font-family="sans-serif" font-size="14" lengthAdjust="spacing" textLength="137.4095" x="465.5184" y="112.0339">magent-command.el</text></g><g class="participant participant-tail" data-participant="Command"><rect fill="#E3E3E3" height="33.0679" rx="2.5" ry="2.5" style="stroke:#181818;stroke-width:0.5;" width="151.4095" x="458.5184" y="1327.7921"/><text fill="#000000" font-family="sans-serif" font-size="14" lengthAdjust="spacing" textLength="137.4095" x="465.5184" y="1349.758">magent-command.el</text></g><g class="participant participant-head" data-participant="Runtime"><rect fill="#E3E3E3" height="33.0679" rx="2.5" ry="2.5" style="stroke:#181818;stroke-width:0.5;" width="162.2454" x="694.1066" y="90.0679"/><text fill="#000000" font-family="sans-serif" font-size="14" lengthAdjust="spacing" textLength="148.2454" x="701.1066" y="112.0339">magent-runtime-api.el</text></g><g class="participant participant-tail" data-participant="Runtime"><rect fill="#E3E3E3" height="33.0679" rx="2.5" ry="2.5" style="stroke:#181818;stroke-width:0.5;" width="162.2454" x="694.1066" y="1327.7921"/><text fill="#000000" font-family="sans-serif" font-size="14" lengthAdjust="spacing" textLength="148.2454" x="701.1066" y="1349.758">magent-runtime-api.el</text></g><g class="participant participant-head" data-participant="Queue"><rect fill="#E3E3E3" height="33.0679" rx="2.5" ry="2.5" style="stroke:#181818;stroke-width:0.5;" width="183.8753" x="866.352" y="90.0679"/><text fill="#000000" font-family="sans-serif" font-size="14" lengthAdjust="spacing" textLength="169.8753" x="873.352" y="112.0339">magent-runtime-queue.el</text></g><g class="participant participant-tail" data-participant="Queue"><rect fill="#E3E3E3" height="33.0679" rx="2.5" ry="2.5" style="stroke:#181818;stroke-width:0.5;" width="183.8753" x="866.352" y="1327.7921"/><text fill="#000000" font-family="sans-serif" font-size="14" lengthAdjust="spacing" textLength="169.8753" x="873.352" y="1349.758">magent-runtime-queue.el</text></g><g class="participant participant-head" data-participant="Ledger"><rect fill="#E3E3E3" height="33.0679" rx="2.5" ry="2.5" style="stroke:#181818;stroke-width:0.5;" width="127.3296" x="1060.2273" y="90.0679"/><text fill="#000000" font-family="sans-serif" font-size="14" lengthAdjust="spacing" textLength="113.3296" x="1067.2273" y="112.0339">magent-ledger.el</text></g><g class="participant participant-tail" data-participant="Ledger"><rect fill="#E3E3E3" height="33.0679" rx="2.5" ry="2.5" style="stroke:#181818;stroke-width:0.5;" width="127.3296" x="1060.2273" y="1327.7921"/><text fill="#000000" font-family="sans-serif" font-size="14" lengthAdjust="spacing" textLength="113.3296" x="1067.2273" y="1349.758">magent-ledger.el</text></g><g class="participant participant-head" data-participant="Agent"><rect fill="#E3E3E3" height="33.0679" rx="2.5" ry="2.5" style="stroke:#181818;stroke-width:0.5;" width="122.9896" x="1392.6776" y="90.0679"/><text fill="#000000" font-family="sans-serif" font-size="14" lengthAdjust="spacing" textLength="108.9896" x="1399.6776" y="112.0339">magent-agent.el</text></g><g class="participant participant-tail" data-participant="Agent"><rect fill="#E3E3E3" height="33.0679" rx="2.5" ry="2.5" style="stroke:#181818;stroke-width:0.5;" width="122.9896" x="1392.6776" y="1327.7921"/><text fill="#000000" font-family="sans-serif" font-size="14" lengthAdjust="spacing" textLength="108.9896" x="1399.6776" y="1349.758">magent-agent.el</text></g><g class="participant participant-head" data-participant="Adapter"><rect fill="#E3E3E3" height="33.0679" rx="2.5" ry="2.5" style="stroke:#181818;stroke-width:0.5;" width="143.5275" x="1573.3678" y="90.0679"/><text fill="#000000" font-family="sans-serif" font-size="14" lengthAdjust="spacing" textLength="129.5275" x="1580.3678" y="112.0339">magent-llm-gptel.el</text></g><g class="participant participant-tail" data-participant="Adapter"><rect fill="#E3E3E3" height="33.0679" rx="2.5" ry="2.5" style="stroke:#181818;stroke-width:0.5;" width="143.5275" x="1573.3678" y="1327.7921"/><text fill="#000000" font-family="sans-serif" font-size="14" lengthAdjust="spacing" textLength="129.5275" x="1580.3678" y="1349.758">magent-llm-gptel.el</text></g><g class="participant participant-head" data-participant="Gptel"><rect fill="#E3E3E3" height="33.0679" rx="2.5" ry="2.5" style="stroke:#181818;stroke-width:0.5;" width="102.8857" x="1818.3569" y="90.0679"/><text fill="#000000" font-family="sans-serif" font-size="14" lengthAdjust="spacing" textLength="88.8857" x="1825.3569" y="112.0339">gptel-request</text></g><g class="participant participant-tail" data-participant="Gptel"><rect fill="#E3E3E3" height="33.0679" rx="2.5" ry="2.5" style="stroke:#181818;stroke-width:0.5;" width="102.8857" x="1818.3569" y="1327.7921"/><text fill="#000000" font-family="sans-serif" font-size="14" lengthAdjust="spacing" textLength="88.8857" x="1825.3569" y="1349.758">gptel-request</text></g><g class="participant participant-head" data-participant="Loop"><rect fill="#E3E3E3" height="33.0679" rx="2.5" ry="2.5" style="stroke:#181818;stroke-width:0.5;" width="156.6595" x="1931.2425" y="90.0679"/><text fill="#000000" font-family="sans-serif" font-size="14" lengthAdjust="spacing" textLength="142.6595" x="1938.2425" y="112.0339">magent-agent-loop.el</text></g><g class="participant participant-tail" data-participant="Loop"><rect fill="#E3E3E3" height="33.0679" rx="2.5" ry="2.5" style="stroke:#181818;stroke-width:0.5;" width="156.6595" x="1931.2425" y="1327.7921"/><text fill="#000000" font-family="sans-serif" font-size="14" lengthAdjust="spacing" textLength="142.6595" x="1938.2425" y="1349.758">magent-agent-loop.el</text></g><g class="participant participant-head" data-participant="Orchestrator"><rect fill="#E3E3E3" height="33.0679" rx="2.5" ry="2.5" style="stroke:#181818;stroke-width:0.5;" width="197.2593" x="2097.902" y="90.0679"/><text fill="#000000" font-family="sans-serif" font-size="14" lengthAdjust="spacing" textLength="183.2593" x="2104.902" y="112.0339">magent-tool-orchestrator.el</text></g><g class="participant participant-tail" data-participant="Orchestrator"><rect fill="#E3E3E3" height="33.0679" rx="2.5" ry="2.5" style="stroke:#181818;stroke-width:0.5;" width="197.2593" x="2097.902" y="1327.7921"/><text fill="#000000" font-family="sans-serif" font-size="14" lengthAdjust="spacing" textLength="183.2593" x="2104.902" y="1349.758">magent-tool-orchestrator.el</text></g><g class="participant participant-head" data-participant="Tools"><rect fill="#E3E3E3" height="33.0679" rx="2.5" ry="2.5" style="stroke:#181818;stroke-width:0.5;" width="117.2356" x="2375.618" y="90.0679"/><text fill="#000000" font-family="sans-serif" font-size="14" lengthAdjust="spacing" textLength="103.2356" x="2382.618" y="112.0339">magent-tools.el</text></g><g class="participant participant-tail" data-participant="Tools"><rect fill="#E3E3E3" height="33.0679" rx="2.5" ry="2.5" style="stroke:#181818;stroke-width:0.5;" width="117.2356" x="2375.618" y="1327.7921"/><text fill="#000000" font-family="sans-serif" font-size="14" lengthAdjust="spacing" textLength="103.2356" x="2382.618" y="1349.758">magent-tools.el</text></g><g class="message" data-participant-1="User" data-participant-2="UI"><polygon fill="#181818" points="83.1437,153.8419,93.1437,157.8419,83.1437,161.8419,87.1437,157.8419" style="stroke:#181818;stroke-width:1;"/><line style="stroke:#181818;stroke-width:1;" x1="23.3089" x2="89.1437" y1="157.8419" y2="157.8419"/><text fill="#000000" font-family="sans-serif" font-size="13" lengthAdjust="spacing" textLength="46.0721" x="30.3089" y="152.0328">prompt</text></g><g class="message" data-participant-1="UI" data-participant-2="ACP"><polygon fill="#181818" points="318.0169,185.5479,328.0169,189.5479,318.0169,193.5479,322.0169,189.5479" style="stroke:#181818;stroke-width:1;"/><line style="stroke:#181818;stroke-width:1;" x1="95.1437" x2="324.0169" y1="189.5479" y2="189.5479"/><text fill="#000000" font-family="sans-serif" font-size="13" lengthAdjust="spacing" textLength="96.1741" x="102.1437" y="183.7389">session/prompt</text></g><path d="M265.9631,204.5479 L327.5219,204.5479 L327.5219,214.2539 L317.5219,224.2539 L265.9631,224.2539 L265.9631,204.5479" fill="#EEEEEE" style="stroke:#000000;stroke-width:1.5;"/><rect fill="none" height="176.512" style="stroke:#000000;stroke-width:1.5;" width="600.3889" x="265.9631" y="204.5479"/><text fill="#000000" font-family="sans-serif" font-size="13" font-weight="bold" lengthAdjust="spacing" textLength="16.5588" x="280.9631" y="219.4449">alt</text><text fill="#000000" font-family="sans-serif" font-size="11" font-weight="bold" lengthAdjust="spacing" textLength="153.097" x="342.5219" y="218.3068">[registered slash command]</text><g class="message" data-participant-1="ACP" data-participant-2="Command"><polygon fill="#181818" points="522.2231,243.9599,532.2231,247.9599,522.2231,251.9599,526.2231,247.9599" style="stroke:#181818;stroke-width:1;"/><line style="stroke:#181818;stroke-width:1;" x1="330.0169" x2="528.2231" y1="247.9599" y2="247.9599"/><text fill="#000000" font-family="sans-serif" font-size="13" lengthAdjust="spacing" textLength="180.2062" x="337.0169" y="242.1509">invoke(spec, runtime session)</text></g><g class="message" data-participant-1="Command" data-participant-2="Command"><line style="stroke:#181818;stroke-width:1;" x1="534.2231" x2="576.2231" y1="279.6659" y2="279.6659"/><line style="stroke:#181818;stroke-width:1;" x1="576.2231" x2="576.2231" y1="279.6659" y2="292.6659"/><line style="stroke:#181818;stroke-width:1;" x1="535.2231" x2="576.2231" y1="292.6659" y2="292.6659"/><polygon fill="#181818" points="545.2231,288.6659,535.2231,292.6659,545.2231,296.6659,541.2231,292.6659" style="stroke:#181818;stroke-width:1;"/><text fill="#000000" font-family="sans-serif" font-size="13" lengthAdjust="spacing" textLength="227.0062" x="541.2231" y="273.8569">arguments / preflight / session policy</text></g><g class="message" data-participant-1="Command" data-participant-2="Runtime"><polygon fill="#181818" points="763.2293,320.3719,773.2293,324.3719,763.2293,328.3719,767.2293,324.3719" style="stroke:#181818;stroke-width:1;"/><line style="stroke:#181818;stroke-width:1;" x1="534.2231" x2="769.2293" y1="324.3719" y2="324.3719"/><text fill="#000000" font-family="sans-serif" font-size="13" lengthAdjust="spacing" textLength="169.4942" x="541.2231" y="318.5629">submit turn / workflow step</text></g><line style="stroke:#000000;stroke-width:1;stroke-dasharray:2,2;" x1="265.9631" x2="866.352" y1="333.3719" y2="333.3719"/><text fill="#000000" font-family="sans-serif" font-size="11" font-weight="bold" lengthAdjust="spacing" textLength="78.9602" x="270.9631" y="345.1308">[plain prompt]</text><g class="message" data-participant-1="ACP" data-participant-2="Runtime"><polygon fill="#181818" points="763.2293,369.0598,773.2293,373.0598,763.2293,377.0598,767.2293,373.0598" style="stroke:#181818;stroke-width:1;"/><line style="stroke:#181818;stroke-width:1;" x1="330.0169" x2="769.2293" y1="373.0598" y2="373.0598"/><text fill="#000000" font-family="sans-serif" font-size="13" lengthAdjust="spacing" textLength="209.4172" x="337.0169" y="367.2508">submit(prompt, session, observer)</text></g><path d="M458,393.0598 L458,438.0598 L850,438.0598 L850,403.0598 L840,393.0598 L458,393.0598" fill="#FAFAFA" style="stroke:#181818;stroke-width:0.5;"/><path d="M840,393.0598 L840,403.0598 L850,403.0598 L840,393.0598" fill="#FAFAFA" style="stroke:#181818;stroke-width:0.5;"/><text fill="#000000" font-family="sans-serif" font-size="13" lengthAdjust="spacing" textLength="297.5833" x="501.1252" y="411.9569">Direct handlers that do not submit an agent turn</text><text fill="#000000" font-family="sans-serif" font-size="13" lengthAdjust="spacing" textLength="183.4952" x="501.1252" y="429.6629">remain outside this sequence.</text><g class="message" data-participant-1="Runtime" data-participant-2="Ledger"><polygon fill="#181818" points="1111.8921,463.1779,1121.8921,467.1779,1111.8921,471.1779,1115.8921,467.1779" style="stroke:#181818;stroke-width:1;"/><line style="stroke:#181818;stroke-width:1;" x1="775.2293" x2="1117.8921" y1="467.1779" y2="467.1779"/><text fill="#000000" font-family="sans-serif" font-size="13" lengthAdjust="spacing" textLength="140.3091" x="782.2293" y="461.3689">queue turn + user item</text></g><g class="message" data-participant-1="Runtime" data-participant-2="Queue"><polygon fill="#181818" points="946.2897,494.8839,956.2897,498.8839,946.2897,502.8839,950.2897,498.8839" style="stroke:#181818;stroke-width:1;"/><line style="stroke:#181818;stroke-width:1;" x1="775.2293" x2="952.2897" y1="498.8839" y2="498.8839"/><text fill="#000000" font-family="sans-serif" font-size="13" lengthAdjust="spacing" textLength="126.9451" x="782.2293" y="493.0749">enqueue submission</text></g><g class="message" data-participant-1="Queue" data-participant-2="Runtime"><polygon fill="#181818" points="786.2293,526.5899,776.2293,530.5899,786.2293,534.5899,782.2293,530.5899" style="stroke:#181818;stroke-width:1;"/><line style="stroke:#181818;stroke-width:1;" x1="780.2293" x2="957.2897" y1="530.5899" y2="530.5899"/><text fill="#000000" font-family="sans-serif" font-size="13" lengthAdjust="spacing" textLength="157.5731" x="792.2293" y="524.7809">start when active slot free</text></g><g class="message" data-participant-1="Runtime" data-participant-2="Agent"><polygon fill="#181818" points="1442.1724,558.2959,1452.1724,562.2959,1442.1724,566.2959,1446.1724,562.2959" style="stroke:#181818;stroke-width:1;"/><line style="stroke:#181818;stroke-width:1;" x1="775.2293" x2="1448.1724" y1="562.2959" y2="562.2959"/><text fill="#000000" font-family="sans-serif" font-size="13" lengthAdjust="spacing" textLength="50.9471" x="782.2293" y="556.4869">run turn</text></g><g class="message" data-participant-1="Agent" data-participant-2="Ledger"><polygon fill="#181818" points="1134.8921,590.002,1124.8921,594.002,1134.8921,598.002,1130.8921,594.002" style="stroke:#181818;stroke-width:1;"/><line style="stroke:#181818;stroke-width:1;" x1="1128.8921" x2="1453.1724" y1="594.002" y2="594.002"/><text fill="#000000" font-family="sans-serif" font-size="13" lengthAdjust="spacing" textLength="306.2803" x="1140.8921" y="588.1929">build prompt from completed turns + current turn</text></g><g class="message" data-participant-1="Agent" data-participant-2="Adapter"><polygon fill="#181818" points="1633.1315,621.708,1643.1315,625.708,1633.1315,629.708,1637.1315,625.708" style="stroke:#181818;stroke-width:1;"/><line style="stroke:#181818;stroke-width:1;" x1="1454.1724" x2="1639.1315" y1="625.708" y2="625.708"/><text fill="#000000" font-family="sans-serif" font-size="13" lengthAdjust="spacing" textLength="166.9591" x="1461.1724" y="619.899">sample normalized request</text></g><g class="message" data-participant-1="Adapter" data-participant-2="Gptel"><polygon fill="#181818" points="1857.7997,653.414,1867.7997,657.414,1857.7997,661.414,1861.7997,657.414" style="stroke:#181818;stroke-width:1;"/><line style="stroke:#181818;stroke-width:1;" x1="1645.1315" x2="1863.7997" y1="657.414" y2="657.414"/><text fill="#000000" font-family="sans-serif" font-size="13" lengthAdjust="spacing" textLength="82.5371" x="1652.1315" y="651.605">gptel-request</text></g><g class="message" data-participant-1="Gptel" data-participant-2="Adapter"><polygon fill="#181818" points="1656.1315,685.12,1646.1315,689.12,1656.1315,693.12,1652.1315,689.12" style="stroke:#181818;stroke-width:1;"/><line style="stroke:#181818;stroke-width:1;stroke-dasharray:2,2;" x1="1650.1315" x2="1868.7997" y1="689.12" y2="689.12"/><text fill="#000000" font-family="sans-serif" font-size="13" lengthAdjust="spacing" textLength="200.6682" x="1662.1315" y="683.311">text / reasoning / tool-use / done</text></g><g class="message" data-participant-1="Adapter" data-participant-2="Loop"><polygon fill="#181818" points="1997.5723,716.826,2007.5723,720.826,1997.5723,724.826,2001.5723,720.826" style="stroke:#181818;stroke-width:1;"/><line style="stroke:#181818;stroke-width:1;stroke-dasharray:2,2;" x1="1645.1315" x2="2003.5723" y1="720.826" y2="720.826"/><text fill="#000000" font-family="sans-serif" font-size="13" lengthAdjust="spacing" textLength="112.4631" x="1652.1315" y="715.017">normalized events</text></g><path d="M41.6179,735.826 L103.1767,735.826 L103.1767,745.532 L93.1767,755.532 L41.6179,755.532 L41.6179,735.826" fill="#EEEEEE" style="stroke:#000000;stroke-width:1.5;"/><rect fill="none" height="575.9661" style="stroke:#000000;stroke-width:1.5;" width="2461.2357" x="41.6179" y="735.826"/><text fill="#000000" font-family="sans-serif" font-size="13" font-weight="bold" lengthAdjust="spacing" textLength="16.5588" x="56.6179" y="750.723">alt</text><text fill="#000000" font-family="sans-serif" font-size="11" font-weight="bold" lengthAdjust="spacing" textLength="111.08" x="118.1767" y="749.5849">[tool-call-batch-end]</text><g class="message" data-participant-1="Loop" data-participant-2="Orchestrator"><polygon fill="#181818" points="2184.5317,775.2381,2194.5317,779.2381,2184.5317,783.2381,2188.5317,779.2381" style="stroke:#181818;stroke-width:1;"/><line style="stroke:#181818;stroke-width:1;" x1="2009.5723" x2="2190.5317" y1="779.2381" y2="779.2381"/><text fill="#000000" font-family="sans-serif" font-size="13" lengthAdjust="spacing" textLength="108.8361" x="2016.5723" y="773.429">dispatch tool calls</text></g><g class="message" data-participant-1="Orchestrator" data-participant-2="Orchestrator"><line style="stroke:#181818;stroke-width:1;" x1="2196.5317" x2="2238.5317" y1="810.9441" y2="810.9441"/><line style="stroke:#181818;stroke-width:1;" x1="2238.5317" x2="2238.5317" y1="810.9441" y2="823.9441"/><line style="stroke:#181818;stroke-width:1;" x1="2197.5317" x2="2238.5317" y1="823.9441" y2="823.9441"/><polygon fill="#181818" points="2207.5317,819.9441,2197.5317,823.9441,2207.5317,827.9441,2203.5317,823.9441" style="stroke:#181818;stroke-width:1;"/><text fill="#000000" font-family="sans-serif" font-size="13" lengthAdjust="spacing" textLength="223.7042" x="2203.5317" y="805.1351">resolve permission / approval / audit</text></g><g class="message" data-participant-1="Orchestrator" data-participant-2="Tools"><polygon fill="#181818" points="2422.2358,851.6501,2432.2358,855.6501,2422.2358,859.6501,2426.2358,855.6501" style="stroke:#181818;stroke-width:1;"/><line style="stroke:#181818;stroke-width:1;" x1="2196.5317" x2="2428.2358" y1="855.6501" y2="855.6501"/><text fill="#000000" font-family="sans-serif" font-size="13" lengthAdjust="spacing" textLength="94.1331" x="2203.5317" y="849.8411">execute serially</text></g><g class="message" data-participant-1="Tools" data-participant-2="Orchestrator"><polygon fill="#181818" points="2207.5317,883.3561,2197.5317,887.3561,2207.5317,891.3561,2203.5317,887.3561" style="stroke:#181818;stroke-width:1;"/><line style="stroke:#181818;stroke-width:1;stroke-dasharray:2,2;" x1="2201.5317" x2="2433.2358" y1="887.3561" y2="887.3561"/><text fill="#000000" font-family="sans-serif" font-size="13" lengthAdjust="spacing" textLength="35.009" x="2213.5317" y="881.5471">result</text></g><g class="message" data-participant-1="Orchestrator" data-participant-2="Loop"><polygon fill="#181818" points="2020.5723,915.0621,2010.5723,919.0621,2020.5723,923.0621,2016.5723,919.0621" style="stroke:#181818;stroke-width:1;"/><line style="stroke:#181818;stroke-width:1;stroke-dasharray:2,2;" x1="2014.5723" x2="2195.5317" y1="919.0621" y2="919.0621"/><text fill="#000000" font-family="sans-serif" font-size="13" lengthAdjust="spacing" textLength="68.4711" x="2026.5723" y="913.2531">tool output</text></g><g class="message" data-participant-1="Loop" data-participant-2="Ledger"><polygon fill="#181818" points="1134.8921,946.7681,1124.8921,950.7681,1134.8921,954.7681,1130.8921,950.7681" style="stroke:#181818;stroke-width:1;"/><line style="stroke:#181818;stroke-width:1;" x1="1128.8921" x2="2008.5723" y1="950.7681" y2="950.7681"/><text fill="#000000" font-family="sans-serif" font-size="13" lengthAdjust="spacing" textLength="101.4131" x="1140.8921" y="944.9591">update tool item</text></g><g class="message" data-participant-1="Loop" data-participant-2="Agent"><polygon fill="#181818" points="1465.1724,978.4742,1455.1724,982.4742,1465.1724,986.4742,1461.1724,982.4742" style="stroke:#181818;stroke-width:1;"/><line style="stroke:#181818;stroke-width:1;" x1="1459.1724" x2="2008.5723" y1="982.4742" y2="982.4742"/><text fill="#000000" font-family="sans-serif" font-size="13" lengthAdjust="spacing" textLength="157.4301" x="1471.1724" y="976.6651">needs follow-up sampling</text></g><g class="message" data-participant-1="Agent" data-participant-2="Ledger"><polygon fill="#181818" points="1134.8921,1010.1802,1124.8921,1014.1802,1134.8921,1018.1802,1130.8921,1014.1802" style="stroke:#181818;stroke-width:1;"/><line style="stroke:#181818;stroke-width:1;" x1="1128.8921" x2="1453.1724" y1="1014.1802" y2="1014.1802"/><text fill="#000000" font-family="sans-serif" font-size="13" lengthAdjust="spacing" textLength="194.4152" x="1140.8921" y="1008.3712">rebuild prompt with tool output</text></g><g class="message" data-participant-1="Agent" data-participant-2="Adapter"><polygon fill="#181818" points="1633.1315,1041.8862,1643.1315,1045.8862,1633.1315,1049.8862,1637.1315,1045.8862" style="stroke:#181818;stroke-width:1;"/><line style="stroke:#181818;stroke-width:1;" x1="1454.1724" x2="1639.1315" y1="1045.8862" y2="1045.8862"/><text fill="#000000" font-family="sans-serif" font-size="13" lengthAdjust="spacing" textLength="113.3731" x="1461.1724" y="1040.0772">continue sampling</text></g><line style="stroke:#000000;stroke-width:1;stroke-dasharray:2,2;" x1="41.6179" x2="2502.8536" y1="1054.8862" y2="1054.8862"/><text fill="#000000" font-family="sans-serif" font-size="11" font-weight="bold" lengthAdjust="spacing" textLength="65.9858" x="46.6179" y="1066.6451">[completed]</text><g class="message" data-participant-1="Loop" data-participant-2="Ledger"><polygon fill="#181818" points="1134.8921,1090.5741,1124.8921,1094.5741,1134.8921,1098.5741,1130.8921,1094.5741" style="stroke:#181818;stroke-width:1;"/><line style="stroke:#181818;stroke-width:1;" x1="1128.8921" x2="2008.5723" y1="1094.5741" y2="1094.5741"/><text fill="#000000" font-family="sans-serif" font-size="13" lengthAdjust="spacing" textLength="185.6272" x="1140.8921" y="1088.7651">complete assistant item + turn</text></g><g class="message" data-participant-1="Loop" data-participant-2="Runtime"><polygon fill="#181818" points="786.2293,1122.2801,776.2293,1126.2801,786.2293,1130.2801,782.2293,1126.2801" style="stroke:#181818;stroke-width:1;"/><line style="stroke:#181818;stroke-width:1;stroke-dasharray:2,2;" x1="780.2293" x2="2008.5723" y1="1126.2801" y2="1126.2801"/><text fill="#000000" font-family="sans-serif" font-size="13" lengthAdjust="spacing" textLength="64.8961" x="792.2293" y="1120.4711">final result</text></g><path d="M265.9631,1141.2801 L327.5219,1141.2801 L327.5219,1150.9861 L317.5219,1160.9861 L265.9631,1160.9861 L265.9631,1141.2801" fill="#EEEEEE" style="stroke:#000000;stroke-width:1.5;"/><rect fill="none" height="131.806" style="stroke:#000000;stroke-width:1.5;" width="600.3889" x="265.9631" y="1141.2801"/><text fill="#000000" font-family="sans-serif" font-size="13" font-weight="bold" lengthAdjust="spacing" textLength="16.5588" x="280.9631" y="1156.1771">alt</text><text fill="#000000" font-family="sans-serif" font-size="11" font-weight="bold" lengthAdjust="spacing" textLength="129.5874" x="342.5219" y="1155.039">[command-owned turn]</text><g class="message" data-participant-1="Runtime" data-participant-2="Command"><polygon fill="#181818" points="545.2231,1180.6921,535.2231,1184.6921,545.2231,1188.6921,541.2231,1184.6921" style="stroke:#181818;stroke-width:1;"/><line style="stroke:#181818;stroke-width:1;stroke-dasharray:2,2;" x1="539.2231" x2="774.2293" y1="1184.6921" y2="1184.6921"/><text fill="#000000" font-family="sans-serif" font-size="13" lengthAdjust="spacing" textLength="98.5141" x="551.2231" y="1178.8831">step completion</text></g><g class="message" data-participant-1="Command" data-participant-2="ACP"><polygon fill="#181818" points="341.0169,1212.3982,331.0169,1216.3982,341.0169,1220.3982,337.0169,1216.3982" style="stroke:#181818;stroke-width:1;"/><line style="stroke:#181818;stroke-width:1;stroke-dasharray:2,2;" x1="335.0169" x2="533.2231" y1="1216.3982" y2="1216.3982"/><text fill="#000000" font-family="sans-serif" font-size="13" lengthAdjust="spacing" textLength="134.0041" x="347.0169" y="1210.5892">command completion</text></g><line style="stroke:#000000;stroke-width:1;stroke-dasharray:2,2;" x1="265.9631" x2="866.352" y1="1225.3982" y2="1225.3982"/><text fill="#000000" font-family="sans-serif" font-size="11" font-weight="bold" lengthAdjust="spacing" textLength="78.9602" x="270.9631" y="1237.1571">[plain prompt]</text><g class="message" data-participant-1="Runtime" data-participant-2="ACP"><polygon fill="#181818" points="341.0169,1261.0861,331.0169,1265.0861,341.0169,1269.0861,337.0169,1265.0861" style="stroke:#181818;stroke-width:1;"/><line style="stroke:#181818;stroke-width:1;stroke-dasharray:2,2;" x1="335.0169" x2="774.2293" y1="1265.0861" y2="1265.0861"/><text fill="#000000" font-family="sans-serif" font-size="13" lengthAdjust="spacing" textLength="98.3971" x="347.0169" y="1259.2771">turn completion</text></g><g class="message" data-participant-1="ACP" data-participant-2="UI"><polygon fill="#181818" points="106.1437,1299.7921,96.1437,1303.7921,106.1437,1307.7921,102.1437,1303.7921" style="stroke:#181818;stroke-width:1;"/><line style="stroke:#181818;stroke-width:1;stroke-dasharray:2,2;" x1="100.1437" x2="329.0169" y1="1303.7921" y2="1303.7921"/><text fill="#000000" font-family="sans-serif" font-size="13" lengthAdjust="spacing" textLength="210.8732" x="112.1437" y="1297.9831">session/update / prompt response</text></g><!--SRC=[VLPTRzGm47pFhrZnL4H3ttb0GY0X9501mGzmaxsBLSSs_hW3VZspTfnUsfINKspFh6UzEwjBEXccMylqHHtP9gg_AGVRnNjjlGfgfjbPDqp1pKmfPBuuYPCQtLdR8nsKYTnrQaWkqC_8eGCYwK5xXO0lIjm-JcpC2rAHVdxQdiyLe0R_cYlYtVklkv31pREoOuEzhyjTQCWswPbxvNM3VwzR_uN_ofov4Rx9OXTkU3noQBZFPRMVbFokQSbYFvwP-wDFR5RegB1y5BCW-i0G6LE1VPITvo_kZNFhetx6zouqEMTw5uO9KOD23HlZzcBlMMPiw1-ow3gfF_LlKMLwGnwDurE7R-oWgjYA7ADszcOvKYPHuAEEo9P7YaR5YPOwTrGue2wL1btRaxldg-XvkAQbQYtcIn0QSaDIuPXd28vq0qbyCFeu9NmlFFBEwE7FbhrqYoZETxEknW3dxCBzmRWpGR7l69rFtYXjMwwhviS1hYhWkjrwJUuERtNYyB9Z96jTOd9ODXNNhM69FkZ0Gw89kuP3f3IfHACZS9eyPIyDJ7ZKMLIvdA8UOTv9HzoCrh43lvOBXSnTKmd1jOsXjvYWvlkAijHJ9vuleSKPGBAjsAAXPDNLest-2Rr3vuaXSKZw1Bo1y4FWpVt57e2ZgZM9kd6fx2vhCoul3RwRfLMyuOJM4Kg4u267iBx36c8nbAXHma3sOLP6_mLpSLJNC80NOm6yiLnNT_jDkCI_fPK2g-YiJCCRAeR2k-5pT9OVuaegS25O5xVpIJgpAquep44Pqz-fD4mz5nCK3hYNVaICKKSlgC8YOKM0Dw2dfC3H6LJ0SrWg1fNAuqbFoiXd7dNQ2LFSBHN_pKDEOhcWSQEOfXxrktTbypJOmoiKuUXGdzD5cckrinyLhYgeqe4FcDOhbdcCT706ZkophyL55SI6JxedyAP_pZfDZoJijClWqA1MUho5BfvV-svFU3l4M8oOR38oHJ-QSp5dPMnCSj0M1LYVJBfX6OEzEzkblt50AwVVp3WPH-rYyQ4Wrt6sJjybv1QuDyIsrrHocGXRviEGRYE_pVUbU3VjjP6PTnR_4y3v1m00]--></g></svg>