<svg xmlns="http://www.w3.org/2000/svg" xmlns:xlink="http://www.w3.org/1999/xlink" contentStyleType="text/css" data-diagram-type="SEQUENCE" height="1020px" preserveAspectRatio="none" style="width:2099px;height:1020px;background:#FFFFFF;" version="1.1" viewBox="0 0 2099 1020" width="2099px" zoomAndPan="magnify"><title>One Magent turn</title><defs/><g><text fill="#000000" font-family="sans-serif" font-size="14" font-weight="bold" lengthAdjust="spacing" textLength="119.3531" x="991.151" y="29.9659">One Magent turn</text><rect fill="none" height="430.1601" style="stroke:#000000;stroke-width:1.5;" width="2051.0373" x="41.6179" y="489.902"/><g><title>User</title><rect fill="#000000" fill-opacity="0.00000" height="812.9263" width="8" x="19.3089" y="124.1358"/><line style="stroke:#181818;stroke-width:0.5;stroke-dasharray:5,5;" x1="23" x2="23" y1="124.1358" y2="937.0621"/></g><g><title>agent-shell . legacy UI</title><rect fill="#000000" fill-opacity="0.00000" height="812.9263" width="8" x="127.6136" y="124.1358"/><line style="stroke:#181818;stroke-width:0.5;stroke-dasharray:5,5;" x1="130.6179" x2="130.6179" y1="124.1358" y2="937.0621"/></g><g><title>magent-runtime-api.el</title><rect fill="#000000" fill-opacity="0.00000" height="812.9263" width="8" x="361.0308" y="124.1358"/><line style="stroke:#181818;stroke-width:0.5;stroke-dasharray:5,5;" x1="364.9081" x2="364.9081" y1="124.1358" y2="937.0621"/></g><g><title>magent-runtime-queue.el</title><rect fill="#000000" fill-opacity="0.00000" height="812.9263" width="8" x="544.0912" y="124.1358"/><line style="stroke:#181818;stroke-width:0.5;stroke-dasharray:5,5;" x1="547.1535" x2="547.1535" y1="124.1358" y2="937.0621"/></g><g><title>magent-ledger.el</title><rect fill="#000000" fill-opacity="0.00000" height="812.9263" width="8" x="709.6936" y="124.1358"/><line style="stroke:#181818;stroke-width:0.5;stroke-dasharray:5,5;" x1="713.0289" x2="713.0289" y1="124.1358" y2="937.0621"/></g><g><title>magent-agent.el</title><rect fill="#000000" fill-opacity="0.00000" height="812.9263" width="8" x="1039.9739" y="124.1358"/><line style="stroke:#181818;stroke-width:0.5;stroke-dasharray:5,5;" x1="1043.4791" x2="1043.4791" y1="124.1358" y2="937.0621"/></g><g><title>magent-llm-gptel.el</title><rect fill="#000000" fill-opacity="0.00000" height="812.9263" width="8" x="1230.933" y="124.1358"/><line style="stroke:#181818;stroke-width:0.5;stroke-dasharray:5,5;" x1="1234.1693" x2="1234.1693" y1="124.1358" y2="937.0621"/></g><g><title>gptel-request</title><rect fill="#000000" fill-opacity="0.00000" height="812.9263" width="8" x="1455.6012" y="124.1358"/><line style="stroke:#181818;stroke-width:0.5;stroke-dasharray:5,5;" x1="1459.1584" x2="1459.1584" y1="124.1358" y2="937.0621"/></g><g><title>magent-agent-loop.el</title><rect fill="#000000" fill-opacity="0.00000" height="812.9263" width="8" x="1595.3738" y="124.1358"/><line style="stroke:#181818;stroke-width:0.5;stroke-dasharray:5,5;" x1="1599.044" x2="1599.044" y1="124.1358" y2="937.0621"/></g><g><title>magent-tool-orchestrator.el</title><rect fill="#000000" fill-opacity="0.00000" height="812.9263" width="8" x="1782.3332" y="124.1358"/><line style="stroke:#181818;stroke-width:0.5;stroke-dasharray:5,5;" x1="1785.7035" x2="1785.7035" y1="124.1358" y2="937.0621"/></g><g><title>magent-tools.el</title><rect fill="#000000" fill-opacity="0.00000" height="812.9263" width="8" x="2020.0373" y="124.1358"/><line style="stroke:#181818;stroke-width:0.5;stroke-dasharray:5,5;" x1="2023.4195" x2="2023.4195" y1="124.1358" y2="937.0621"/></g><g class="participant participant-head" data-participant="User"><text fill="#000000" font-family="sans-serif" font-size="14" lengthAdjust="spacing" textLength="30.6179" x="5" y="120.0339">User</text><ellipse cx="23.3089" cy="53.5679" fill="#E3E3E3" rx="8" ry="8" style="stroke:#181818;stroke-width:0.5;"/><path d="M23.3089,61.5679 L23.3089,88.5679 M10.3089,69.5679 L36.3089,69.5679 M23.3089,88.5679 L10.3089,103.5679 M23.3089,88.5679 L36.3089,103.5679" fill="none" style="stroke:#181818;stroke-width:0.5;"/></g><g class="participant participant-tail" data-participant="User"><text fill="#000000" font-family="sans-serif" font-size="14" lengthAdjust="spacing" textLength="30.6179" x="5" y="951.0281">User</text><ellipse cx="23.3089" cy="963.63" fill="#E3E3E3" rx="8" ry="8" style="stroke:#181818;stroke-width:0.5;"/><path d="M23.3089,971.63 L23.3089,998.63 M10.3089,979.63 L36.3089,979.63 M23.3089,998.63 L10.3089,1013.63 M23.3089,998.63 L36.3089,1013.63" fill="none" style="stroke:#181818;stroke-width:0.5;"/></g><g class="participant participant-head" data-participant="UI"><rect fill="#E3E3E3" height="33.0679" rx="2.5" ry="2.5" style="stroke:#181818;stroke-width:0.5;" width="159.9914" x="51.6179" y="90.0679"/><text fill="#000000" font-family="sans-serif" font-size="14" lengthAdjust="spacing" textLength="145.9914" x="58.6179" y="112.0339">agent-shell / legacy UI</text></g><g class="participant participant-tail" data-participant="UI"><rect fill="#E3E3E3" height="33.0679" rx="2.5" ry="2.5" style="stroke:#181818;stroke-width:0.5;" width="159.9914" x="51.6179" y="936.0621"/><text fill="#000000" font-family="sans-serif" font-size="14" lengthAdjust="spacing" textLength="145.9914" x="58.6179" y="958.0281">agent-shell / legacy UI</text></g><g class="participant participant-head" data-participant="Runtime"><rect fill="#E3E3E3" height="33.0679" rx="2.5" ry="2.5" style="stroke:#181818;stroke-width:0.5;" width="162.2454" x="283.9081" y="90.0679"/><text fill="#000000" font-family="sans-serif" font-size="14" lengthAdjust="spacing" textLength="148.2454" x="290.9081" y="112.0339">magent-runtime-api.el</text></g><g class="participant participant-tail" data-participant="Runtime"><rect fill="#E3E3E3" height="33.0679" rx="2.5" ry="2.5" style="stroke:#181818;stroke-width:0.5;" width="162.2454" x="283.9081" y="936.0621"/><text fill="#000000" font-family="sans-serif" font-size="14" lengthAdjust="spacing" textLength="148.2454" x="290.9081" y="958.0281">magent-runtime-api.el</text></g><g class="participant participant-head" data-participant="Queue"><rect fill="#E3E3E3" height="33.0679" rx="2.5" ry="2.5" style="stroke:#181818;stroke-width:0.5;" width="183.8753" x="456.1535" y="90.0679"/><text fill="#000000" font-family="sans-serif" font-size="14" lengthAdjust="spacing" textLength="169.8753" x="463.1535" y="112.0339">magent-runtime-queue.el</text></g><g class="participant participant-tail" data-participant="Queue"><rect fill="#E3E3E3" height="33.0679" rx="2.5" ry="2.5" style="stroke:#181818;stroke-width:0.5;" width="183.8753" x="456.1535" y="936.0621"/><text fill="#000000" font-family="sans-serif" font-size="14" lengthAdjust="spacing" textLength="169.8753" x="463.1535" y="958.0281">magent-runtime-queue.el</text></g><g class="participant participant-head" data-participant="Ledger"><rect fill="#E3E3E3" height="33.0679" rx="2.5" ry="2.5" style="stroke:#181818;stroke-width:0.5;" width="127.3296" x="650.0289" y="90.0679"/><text fill="#000000" font-family="sans-serif" font-size="14" lengthAdjust="spacing" textLength="113.3296" x="657.0289" y="112.0339">magent-ledger.el</text></g><g class="participant participant-tail" data-participant="Ledger"><rect fill="#E3E3E3" height="33.0679" rx="2.5" ry="2.5" style="stroke:#181818;stroke-width:0.5;" width="127.3296" x="650.0289" y="936.0621"/><text fill="#000000" font-family="sans-serif" font-size="14" lengthAdjust="spacing" textLength="113.3296" x="657.0289" y="958.0281">magent-ledger.el</text></g><g class="participant participant-head" data-participant="Agent"><rect fill="#E3E3E3" height="33.0679" rx="2.5" ry="2.5" style="stroke:#181818;stroke-width:0.5;" width="122.9896" x="982.4791" y="90.0679"/><text fill="#000000" font-family="sans-serif" font-size="14" lengthAdjust="spacing" textLength="108.9896" x="989.4791" y="112.0339">magent-agent.el</text></g><g class="participant participant-tail" data-participant="Agent"><rect fill="#E3E3E3" height="33.0679" rx="2.5" ry="2.5" style="stroke:#181818;stroke-width:0.5;" width="122.9896" x="982.4791" y="936.0621"/><text fill="#000000" font-family="sans-serif" font-size="14" lengthAdjust="spacing" textLength="108.9896" x="989.4791" y="958.0281">magent-agent.el</text></g><g class="participant participant-head" data-participant="Adapter"><rect fill="#E3E3E3" height="33.0679" rx="2.5" ry="2.5" style="stroke:#181818;stroke-width:0.5;" width="143.5275" x="1163.1693" y="90.0679"/><text fill="#000000" font-family="sans-serif" font-size="14" lengthAdjust="spacing" textLength="129.5275" x="1170.1693" y="112.0339">magent-llm-gptel.el</text></g><g class="participant participant-tail" data-participant="Adapter"><rect fill="#E3E3E3" height="33.0679" rx="2.5" ry="2.5" style="stroke:#181818;stroke-width:0.5;" width="143.5275" x="1163.1693" y="936.0621"/><text fill="#000000" font-family="sans-serif" font-size="14" lengthAdjust="spacing" textLength="129.5275" x="1170.1693" y="958.0281">magent-llm-gptel.el</text></g><g class="participant participant-head" data-participant="Gptel"><rect fill="#E3E3E3" height="33.0679" rx="2.5" ry="2.5" style="stroke:#181818;stroke-width:0.5;" width="102.8857" x="1408.1584" y="90.0679"/><text fill="#000000" font-family="sans-serif" font-size="14" lengthAdjust="spacing" textLength="88.8857" x="1415.1584" y="112.0339">gptel-request</text></g><g class="participant participant-tail" data-participant="Gptel"><rect fill="#E3E3E3" height="33.0679" rx="2.5" ry="2.5" style="stroke:#181818;stroke-width:0.5;" width="102.8857" x="1408.1584" y="936.0621"/><text fill="#000000" font-family="sans-serif" font-size="14" lengthAdjust="spacing" textLength="88.8857" x="1415.1584" y="958.0281">gptel-request</text></g><g class="participant participant-head" data-participant="Loop"><rect fill="#E3E3E3" height="33.0679" rx="2.5" ry="2.5" style="stroke:#181818;stroke-width:0.5;" width="156.6595" x="1521.044" y="90.0679"/><text fill="#000000" font-family="sans-serif" font-size="14" lengthAdjust="spacing" textLength="142.6595" x="1528.044" y="112.0339">magent-agent-loop.el</text></g><g class="participant participant-tail" data-participant="Loop"><rect fill="#E3E3E3" height="33.0679" rx="2.5" ry="2.5" style="stroke:#181818;stroke-width:0.5;" width="156.6595" x="1521.044" y="936.0621"/><text fill="#000000" font-family="sans-serif" font-size="14" lengthAdjust="spacing" textLength="142.6595" x="1528.044" y="958.0281">magent-agent-loop.el</text></g><g class="participant participant-head" data-participant="Orchestrator"><rect fill="#E3E3E3" height="33.0679" rx="2.5" ry="2.5" style="stroke:#181818;stroke-width:0.5;" width="197.2593" x="1687.7035" y="90.0679"/><text fill="#000000" font-family="sans-serif" font-size="14" lengthAdjust="spacing" textLength="183.2593" x="1694.7035" y="112.0339">magent-tool-orchestrator.el</text></g><g class="participant participant-tail" data-participant="Orchestrator"><rect fill="#E3E3E3" height="33.0679" rx="2.5" ry="2.5" style="stroke:#181818;stroke-width:0.5;" width="197.2593" x="1687.7035" y="936.0621"/><text fill="#000000" font-family="sans-serif" font-size="14" lengthAdjust="spacing" textLength="183.2593" x="1694.7035" y="958.0281">magent-tool-orchestrator.el</text></g><g class="participant participant-head" data-participant="Tools"><rect fill="#E3E3E3" height="33.0679" rx="2.5" ry="2.5" style="stroke:#181818;stroke-width:0.5;" width="117.2356" x="1965.4195" y="90.0679"/><text fill="#000000" font-family="sans-serif" font-size="14" lengthAdjust="spacing" textLength="103.2356" x="1972.4195" y="112.0339">magent-tools.el</text></g><g class="participant participant-tail" data-participant="Tools"><rect fill="#E3E3E3" height="33.0679" rx="2.5" ry="2.5" style="stroke:#181818;stroke-width:0.5;" width="117.2356" x="1965.4195" y="936.0621"/><text fill="#000000" font-family="sans-serif" font-size="14" lengthAdjust="spacing" textLength="103.2356" x="1972.4195" y="958.0281">magent-tools.el</text></g><g class="message" data-participant-1="User" data-participant-2="UI"><polygon fill="#181818" points="119.6136,153.8419,129.6136,157.8419,119.6136,161.8419,123.6136,157.8419" style="stroke:#181818;stroke-width:1;"/><line style="stroke:#181818;stroke-width:1;" x1="23.3089" x2="125.6136" y1="157.8419" y2="157.8419"/><text fill="#000000" font-family="sans-serif" font-size="13" lengthAdjust="spacing" textLength="46.0721" x="30.3089" y="152.0328">prompt</text></g><g class="message" data-participant-1="UI" data-participant-2="Runtime"><polygon fill="#181818" points="353.0308,185.5479,363.0308,189.5479,353.0308,193.5479,357.0308,189.5479" style="stroke:#181818;stroke-width:1;"/><line style="stroke:#181818;stroke-width:1;" x1="131.6136" x2="359.0308" y1="189.5479" y2="189.5479"/><text fill="#000000" font-family="sans-serif" font-size="13" lengthAdjust="spacing" textLength="209.4172" x="138.6136" y="183.7389">submit(prompt, session, observer)</text></g><g class="message" data-participant-1="Runtime" data-participant-2="Ledger"><polygon fill="#181818" points="701.6936,217.2539,711.6936,221.2539,701.6936,225.2539,705.6936,221.2539" style="stroke:#181818;stroke-width:1;"/><line style="stroke:#181818;stroke-width:1;" x1="365.0308" x2="707.6936" y1="221.2539" y2="221.2539"/><text fill="#000000" font-family="sans-serif" font-size="13" lengthAdjust="spacing" textLength="140.3091" x="372.0308" y="215.4449">queue turn + user item</text></g><g class="message" data-participant-1="Runtime" data-participant-2="Queue"><polygon fill="#181818" points="536.0912,248.9599,546.0912,252.9599,536.0912,256.9599,540.0912,252.9599" style="stroke:#181818;stroke-width:1;"/><line style="stroke:#181818;stroke-width:1;" x1="365.0308" x2="542.0912" y1="252.9599" y2="252.9599"/><text fill="#000000" font-family="sans-serif" font-size="13" lengthAdjust="spacing" textLength="126.9451" x="372.0308" y="247.1509">enqueue submission</text></g><g class="message" data-participant-1="Queue" data-participant-2="Runtime"><polygon fill="#181818" points="376.0308,280.6659,366.0308,284.6659,376.0308,288.6659,372.0308,284.6659" style="stroke:#181818;stroke-width:1;"/><line style="stroke:#181818;stroke-width:1;" x1="370.0308" x2="547.0912" y1="284.6659" y2="284.6659"/><text fill="#000000" font-family="sans-serif" font-size="13" lengthAdjust="spacing" textLength="157.5731" x="382.0308" y="278.8569">start when active slot free</text></g><g class="message" data-participant-1="Runtime" data-participant-2="Agent"><polygon fill="#181818" points="1031.9739,312.3719,1041.9739,316.3719,1031.9739,320.3719,1035.9739,316.3719" style="stroke:#181818;stroke-width:1;"/><line style="stroke:#181818;stroke-width:1;" x1="365.0308" x2="1037.9739" y1="316.3719" y2="316.3719"/><text fill="#000000" font-family="sans-serif" font-size="13" lengthAdjust="spacing" textLength="50.9471" x="372.0308" y="310.5629">run turn</text></g><g class="message" data-participant-1="Agent" data-participant-2="Ledger"><polygon fill="#181818" points="724.6936,344.0779,714.6936,348.0779,724.6936,352.0779,720.6936,348.0779" style="stroke:#181818;stroke-width:1;"/><line style="stroke:#181818;stroke-width:1;" x1="718.6936" x2="1042.9739" y1="348.0779" y2="348.0779"/><text fill="#000000" font-family="sans-serif" font-size="13" lengthAdjust="spacing" textLength="306.2803" x="730.6936" y="342.2689">build prompt from completed turns + current turn</text></g><g class="message" data-participant-1="Agent" data-participant-2="Adapter"><polygon fill="#181818" points="1222.933,375.784,1232.933,379.784,1222.933,383.784,1226.933,379.784" style="stroke:#181818;stroke-width:1;"/><line style="stroke:#181818;stroke-width:1;" x1="1043.9739" x2="1228.933" y1="379.784" y2="379.784"/><text fill="#000000" font-family="sans-serif" font-size="13" lengthAdjust="spacing" textLength="166.9591" x="1050.9739" y="373.975">sample normalized request</text></g><g class="message" data-participant-1="Adapter" data-participant-2="Gptel"><polygon fill="#181818" points="1447.6012,407.49,1457.6012,411.49,1447.6012,415.49,1451.6012,411.49" style="stroke:#181818;stroke-width:1;"/><line style="stroke:#181818;stroke-width:1;" x1="1234.933" x2="1453.6012" y1="411.49" y2="411.49"/><text fill="#000000" font-family="sans-serif" font-size="13" lengthAdjust="spacing" textLength="82.5371" x="1241.933" y="405.681">gptel-request</text></g><g class="message" data-participant-1="Gptel" data-participant-2="Adapter"><polygon fill="#181818" points="1245.933,439.196,1235.933,443.196,1245.933,447.196,1241.933,443.196" style="stroke:#181818;stroke-width:1;"/><line style="stroke:#181818;stroke-width:1;stroke-dasharray:2,2;" x1="1239.933" x2="1458.6012" y1="443.196" y2="443.196"/><text fill="#000000" font-family="sans-serif" font-size="13" lengthAdjust="spacing" textLength="200.6682" x="1251.933" y="437.387">text / reasoning / tool-use / done</text></g><g class="message" data-participant-1="Adapter" data-participant-2="Loop"><polygon fill="#181818" points="1587.3738,470.902,1597.3738,474.902,1587.3738,478.902,1591.3738,474.902" style="stroke:#181818;stroke-width:1;"/><line style="stroke:#181818;stroke-width:1;stroke-dasharray:2,2;" x1="1234.933" x2="1593.3738" y1="474.902" y2="474.902"/><text fill="#000000" font-family="sans-serif" font-size="13" lengthAdjust="spacing" textLength="112.4631" x="1241.933" y="469.093">normalized events</text></g><path d="M41.6179,489.902 L103.1767,489.902 L103.1767,499.608 L93.1767,509.608 L41.6179,509.608 L41.6179,489.902" fill="#EEEEEE" style="stroke:#000000;stroke-width:1.5;"/><rect fill="none" height="430.1601" style="stroke:#000000;stroke-width:1.5;" width="2051.0373" x="41.6179" y="489.902"/><text fill="#000000" font-family="sans-serif" font-size="13" font-weight="bold" lengthAdjust="spacing" textLength="16.5588" x="56.6179" y="504.799">alt</text><text fill="#000000" font-family="sans-serif" font-size="11" font-weight="bold" lengthAdjust="spacing" textLength="111.08" x="118.1767" y="503.6609">[tool-call-batch-end]</text><g class="message" data-participant-1="Loop" data-participant-2="Orchestrator"><polygon fill="#181818" points="1774.3332,529.314,1784.3332,533.314,1774.3332,537.314,1778.3332,533.314" style="stroke:#181818;stroke-width:1;"/><line style="stroke:#181818;stroke-width:1;" x1="1599.3738" x2="1780.3332" y1="533.314" y2="533.314"/><text fill="#000000" font-family="sans-serif" font-size="13" lengthAdjust="spacing" textLength="108.8361" x="1606.3738" y="527.505">dispatch tool calls</text></g><g class="message" data-participant-1="Orchestrator" data-participant-2="Orchestrator"><line style="stroke:#181818;stroke-width:1;" x1="1786.3332" x2="1828.3332" y1="565.0201" y2="565.0201"/><line style="stroke:#181818;stroke-width:1;" x1="1828.3332" x2="1828.3332" y1="565.0201" y2="578.0201"/><line style="stroke:#181818;stroke-width:1;" x1="1787.3332" x2="1828.3332" y1="578.0201" y2="578.0201"/><polygon fill="#181818" points="1797.3332,574.0201,1787.3332,578.0201,1797.3332,582.0201,1793.3332,578.0201" style="stroke:#181818;stroke-width:1;"/><text fill="#000000" font-family="sans-serif" font-size="13" lengthAdjust="spacing" textLength="223.7042" x="1793.3332" y="559.2111">resolve permission / approval / audit</text></g><g class="message" data-participant-1="Orchestrator" data-participant-2="Tools"><polygon fill="#181818" points="2012.0373,605.7261,2022.0373,609.7261,2012.0373,613.7261,2016.0373,609.7261" style="stroke:#181818;stroke-width:1;"/><line style="stroke:#181818;stroke-width:1;" x1="1786.3332" x2="2018.0373" y1="609.7261" y2="609.7261"/><text fill="#000000" font-family="sans-serif" font-size="13" lengthAdjust="spacing" textLength="94.1331" x="1793.3332" y="603.9171">execute serially</text></g><g class="message" data-participant-1="Tools" data-participant-2="Orchestrator"><polygon fill="#181818" points="1797.3332,637.4321,1787.3332,641.4321,1797.3332,645.4321,1793.3332,641.4321" style="stroke:#181818;stroke-width:1;"/><line style="stroke:#181818;stroke-width:1;stroke-dasharray:2,2;" x1="1791.3332" x2="2023.0373" y1="641.4321" y2="641.4321"/><text fill="#000000" font-family="sans-serif" font-size="13" lengthAdjust="spacing" textLength="35.009" x="1803.3332" y="635.6231">result</text></g><g class="message" data-participant-1="Orchestrator" data-participant-2="Loop"><polygon fill="#181818" points="1610.3738,669.1381,1600.3738,673.1381,1610.3738,677.1381,1606.3738,673.1381" style="stroke:#181818;stroke-width:1;"/><line style="stroke:#181818;stroke-width:1;stroke-dasharray:2,2;" x1="1604.3738" x2="1785.3332" y1="673.1381" y2="673.1381"/><text fill="#000000" font-family="sans-serif" font-size="13" lengthAdjust="spacing" textLength="68.4711" x="1616.3738" y="667.3291">tool output</text></g><g class="message" data-participant-1="Loop" data-participant-2="Ledger"><polygon fill="#181818" points="724.6936,700.8441,714.6936,704.8441,724.6936,708.8441,720.6936,704.8441" style="stroke:#181818;stroke-width:1;"/><line style="stroke:#181818;stroke-width:1;" x1="718.6936" x2="1598.3738" y1="704.8441" y2="704.8441"/><text fill="#000000" font-family="sans-serif" font-size="13" lengthAdjust="spacing" textLength="101.4131" x="730.6936" y="699.0351">update tool item</text></g><g class="message" data-participant-1="Loop" data-participant-2="Agent"><polygon fill="#181818" points="1054.9739,732.5501,1044.9739,736.5501,1054.9739,740.5501,1050.9739,736.5501" style="stroke:#181818;stroke-width:1;"/><line style="stroke:#181818;stroke-width:1;" x1="1048.9739" x2="1598.3738" y1="736.5501" y2="736.5501"/><text fill="#000000" font-family="sans-serif" font-size="13" lengthAdjust="spacing" textLength="157.4301" x="1060.9739" y="730.7411">needs follow-up sampling</text></g><g class="message" data-participant-1="Agent" data-participant-2="Ledger"><polygon fill="#181818" points="724.6936,764.2562,714.6936,768.2562,724.6936,772.2562,720.6936,768.2562" style="stroke:#181818;stroke-width:1;"/><line style="stroke:#181818;stroke-width:1;" x1="718.6936" x2="1042.9739" y1="768.2562" y2="768.2562"/><text fill="#000000" font-family="sans-serif" font-size="13" lengthAdjust="spacing" textLength="194.4152" x="730.6936" y="762.4472">rebuild prompt with tool output</text></g><g class="message" data-participant-1="Agent" data-participant-2="Adapter"><polygon fill="#181818" points="1222.933,795.9622,1232.933,799.9622,1222.933,803.9622,1226.933,799.9622" style="stroke:#181818;stroke-width:1;"/><line style="stroke:#181818;stroke-width:1;" x1="1043.9739" x2="1228.933" y1="799.9622" y2="799.9622"/><text fill="#000000" font-family="sans-serif" font-size="13" lengthAdjust="spacing" textLength="113.3731" x="1050.9739" y="794.1532">continue sampling</text></g><line style="stroke:#000000;stroke-width:1;stroke-dasharray:2,2;" x1="41.6179" x2="2092.6551" y1="808.9622" y2="808.9622"/><text fill="#000000" font-family="sans-serif" font-size="11" font-weight="bold" lengthAdjust="spacing" textLength="65.9858" x="46.6179" y="820.7211">[completed]</text><g class="message" data-participant-1="Loop" data-participant-2="Ledger"><polygon fill="#181818" points="724.6936,844.6501,714.6936,848.6501,724.6936,852.6501,720.6936,848.6501" style="stroke:#181818;stroke-width:1;"/><line style="stroke:#181818;stroke-width:1;" x1="718.6936" x2="1598.3738" y1="848.6501" y2="848.6501"/><text fill="#000000" font-family="sans-serif" font-size="13" lengthAdjust="spacing" textLength="185.6272" x="730.6936" y="842.8411">complete assistant item + turn</text></g><g class="message" data-participant-1="Loop" data-participant-2="Runtime"><polygon fill="#181818" points="376.0308,876.3561,366.0308,880.3561,376.0308,884.3561,372.0308,880.3561" style="stroke:#181818;stroke-width:1;"/><line style="stroke:#181818;stroke-width:1;stroke-dasharray:2,2;" x1="370.0308" x2="1598.3738" y1="880.3561" y2="880.3561"/><text fill="#000000" font-family="sans-serif" font-size="13" lengthAdjust="spacing" textLength="64.8961" x="382.0308" y="874.5471">final result</text></g><g class="message" data-participant-1="Runtime" data-participant-2="UI"><polygon fill="#181818" points="142.6136,908.0621,132.6136,912.0621,142.6136,916.0621,138.6136,912.0621" style="stroke:#181818;stroke-width:1;"/><line style="stroke:#181818;stroke-width:1;stroke-dasharray:2,2;" x1="136.6136" x2="364.0308" y1="912.0621" y2="912.0621"/><text fill="#000000" font-family="sans-serif" font-size="13" lengthAdjust="spacing" textLength="93.4441" x="148.6136" y="906.2531">session/update</text></g><!--SRC=[VLJBRjim4BppAnOvjMXKttieq5DHe4NGela0MbfRH2XI9PTsqg_laBHaALPwiVcO6Iuvin8Zbkd1CVtGHtP2ae9JyScuKGSzqE2TR_lW1oO9YHSxiTUTFnjtf8EsaPNIhVX0Zv630a9CQqODmRkYsyIUhQKTMJxgzeKUlzsHZlXROuSA3ic96RZHe_d8jY1_rQN_mlyaJZmHVkR99jnoT-GmuRwNsIQm_4wuBtcohMU7vZWAsndQQKnVQHP44nX5HYcmhtdbxOCRw_quLudn9bIyjuqFRG_LeE70n7XOhBt9Z1FwTvuebTsZvZDyeKyqmlPH5CPOkRm_bcFQ3qRUrTrxYXoZyUwU_1xa4uVtQiA2LbyNhE9DIHTze9IFCSB34beC0v9TnPPpYhQgM-ig15UYSy-E43np0jvweKDWNeeMrm17H6gqwyAoidqojhjS5dm_K8kXPU6kK28ARbC8StVC4XUVSpKwCyZvC6Xh_e9vCLfD6C2Btm2lag3gQhEI4tuMz4fW7RtBBRQZuZFU3SFEExxgvgiW760jJkSJIeIVsafbjjhQPg-bxHjsdQBA0NSP4sXq9euPLLYKMH7W5UYM53Xw2mT63XV7KAKUyQGddNjUfyx8Xam9NNRycTiaS923mOalWDQjPlEiP6_5hgzG2lT9nYIBQyvkfx7JEAgWIWAlc2ahZhcBTF3M-dEJncekN03qDZs1L_av6-bVbR0HbzOZe2vdV99cV4AlkTigVDf4jqQ3z4Cpruzmbb1EZ5MJ78o30VEJpNqnTVYbTtVrKHIIyGy0]--></g></svg>